<?xml version="1.0" encoding="UTF-8" standalone="no"?>
<!DOCTYPE svg PUBLIC "-//W3C//DTD SVG 1.1//EN" "http://www.w3.org/Graphics/SVG/1.1/DTD/svg11.dtd">
<svg width="100%" height="100%" viewBox="0 0 278 278" version="1.1" xmlns="http://www.w3.org/2000/svg" xmlns:xlink="http://www.w3.org/1999/xlink" xml:space="preserve" xmlns:serif="http://www.serif.com/" style="fill-rule:evenodd;clip-rule:evenodd;stroke-linejoin:round;stroke-miterlimit:1.41421;">
    <g transform="matrix(1,0,0,1,-2295,-705)">
        <g transform="matrix(1,0,0,1,-796,594)">
            <g transform="matrix(0.996416,0,0,0.996416,2459.27,-0.598566)">
                <circle cx="773.5" cy="251.5" r="139.5" fill="rgb(255,87,34)" class="fill"/>
                <clipPath id="_clip1">
                    <circle cx="773.5" cy="251.5" r="139.5"/>
                </clipPath>
                <g clip-path="url(#_clip1)">
                    <g transform="matrix(0.62189,0,0,0.62189,-729.042,58.6271)">
                        <path d="M2335.63,186.13C2332.75,185.543 2330.36,186.243 2327.76,187.837C2322.87,190.937 2317.76,193.537 2312.76,196.537C2311.57,197.237 2310.26,197.237 2308.97,197.337C2306.26,197.637 2304.16,196.037 2303.37,194.237C2302.57,192.337 2305.16,191.637 2306.66,190.737C2307.37,190.337 2307.97,189.737 2308.57,189.237L2308.6,189.191C2314.88,181.401 2319.48,172.126 2328.16,166.337C2329.66,165.437 2331.16,164.337 2332.66,163.337L2332.71,163.307C2340.19,158.212 2346.58,151.825 2352.87,145.437C2353.66,143.637 2355.16,142.437 2356.57,141.237C2356.6,141.28 2356.64,141.322 2356.67,141.365C2356.63,141.289 2356.6,141.213 2356.57,141.137C2363.26,132.637 2369.97,124.237 2376.66,115.737C2381.26,109.937 2387.47,107.737 2394.66,107.937C2401.37,108.137 2403.97,110.037 2405.66,116.537C2408.57,127.537 2409.26,138.837 2409.07,150.237C2408.97,154.937 2408.97,159.537 2408.57,164.237C2408.26,167.537 2409.47,168.237 2412.66,168.337C2426.66,168.737 2440.87,168.537 2454.26,172.437C2466.76,176.037 2478.87,181.237 2490.87,186.237C2497.76,189.137 2500.37,195.937 2501.57,202.737C2502.76,209.337 2505.57,214.137 2511.47,217.237C2512.97,218.037 2514.47,218.837 2515.47,220.137C2519.37,224.837 2523.87,226.837 2530.16,225.437C2533.57,224.637 2535.87,226.037 2536.66,230.637C2537.26,234.037 2537.07,238.737 2541.37,241.237C2542.87,242.137 2541.26,244.637 2540.16,246.037C2538.26,248.437 2537.26,250.537 2538.26,254.137C2539.66,258.937 2536.97,264.137 2538.37,269.237C2538.87,271.137 2536.66,272.637 2534.97,273.737C2525.76,279.937 2515.57,281.337 2504.97,279.037C2497.97,277.537 2494.87,272.237 2494.07,265.337C2486.66,269.737 2483.66,268.237 2482.26,259.937C2481.57,255.737 2483.07,253.837 2487.07,253.837C2491.26,253.937 2493.87,252.637 2494.57,248.137C2495.07,245.037 2497.57,244.037 2500.37,243.537C2501.16,243.337 2502.76,243.537 2502.47,242.137C2502.07,240.437 2500.47,241.137 2499.57,241.537C2494.47,243.937 2489.47,246.437 2484.37,248.937C2470.57,255.837 2455.47,259.637 2441.47,266.037C2431.19,270.709 2420.75,275.071 2410.31,279.42L2407.59,280.554C2404.41,281.878 2401.24,283.203 2398.07,284.537C2396.07,285.337 2394.87,286.537 2394.47,288.837C2391.76,306.037 2389.76,323.037 2394.97,340.237C2397.16,347.537 2394.97,355.237 2394.07,362.537C2392.16,377.437 2392.87,392.537 2390.07,407.237C2389.47,410.137 2390.76,411.437 2393.57,411.737C2401.37,412.537 2409.16,412.537 2416.87,411.037C2425.16,409.437 2433.47,409.937 2441.76,410.737C2444.26,411.037 2446.76,411.137 2449.16,410.537C2467.37,405.437 2482.07,411.637 2494.97,424.137C2496.37,425.537 2497.87,426.937 2498.37,428.937C2498.87,430.837 2499.76,432.537 2502.07,431.937C2504.37,431.337 2506.87,431.337 2507.66,428.037C2509.16,421.737 2509.47,422.237 2516.26,422.837C2519.87,423.137 2524.57,425.237 2527.26,420.037C2528.16,418.237 2530.07,419.937 2531.07,420.737C2534.37,423.337 2537.07,426.437 2542.26,425.137C2543.97,424.737 2546.37,426.937 2548.37,427.937C2550.47,429.037 2551.76,432.137 2555.07,430.137C2555.37,429.937 2556.66,431.137 2557.37,431.837C2565.76,439.637 2564.97,461.037 2554.97,467.737C2553.16,468.937 2551.26,470.037 2549.07,470.137C2542.87,470.337 2536.76,470.437 2530.57,469.737C2525.07,469.137 2520.37,466.837 2516.07,463.637C2512.87,461.237 2510.07,461.537 2507.97,464.737C2501.76,474.237 2491.87,476.737 2482.07,476.837C2464.47,477.037 2446.87,480.337 2429.26,478.237C2421.37,477.237 2413.76,479.737 2405.97,480.437C2392.72,481.623 2379.67,480.367 2366.72,478.116C2366.7,478.157 2366.68,478.197 2366.66,478.237C2364.68,478.138 2362.7,478.137 2360.71,478.235L2360.66,478.237C2352.66,481.937 2344.26,484.137 2335.57,485.537C2332.16,486.037 2328.66,488.137 2325.66,484.137C2325.07,483.437 2322.57,484.237 2320.87,484.237C2318.87,484.237 2317.26,483.337 2316.47,481.537C2315.76,479.937 2317.66,479.437 2318.16,478.437C2325.47,464.237 2339.37,464.237 2352.37,462.237C2352.54,462.214 2352.7,462.192 2352.86,462.171C2352.69,462.159 2352.53,462.147 2352.37,462.137C2353.45,460.958 2355.49,462.193 2356.42,460.528C2344.25,458.211 2337.17,448.32 2338.26,435.337C2338.76,429.837 2339.97,424.437 2342.07,419.337C2346.66,408.237 2349.37,396.637 2351.76,384.937C2353.66,375.637 2356.47,366.637 2360.76,358.137C2366.07,347.937 2366.66,337.137 2365.37,326.037C2364.26,316.837 2364.57,307.837 2368.37,299.137C2368.66,298.337 2370.26,296.437 2367.37,296.537C2363.16,296.637 2365.26,294.037 2366.57,293.537C2372.26,291.337 2372.37,285.837 2373.66,281.337C2376.76,271.037 2379.37,260.537 2382.37,250.237C2383.37,246.737 2382.07,243.737 2381.16,240.537C2380.57,238.137 2379.47,235.837 2378.87,233.437C2377.47,228.437 2374.26,226.137 2369.26,228.037C2353.66,233.937 2338.07,240.037 2322.97,247.337C2319.16,249.237 2317.07,252.337 2315.47,256.137C2310.97,266.837 2307.37,277.937 2297.16,285.137C2292.16,288.737 2286.66,291.537 2281.66,295.037C2278.97,296.937 2276.26,298.937 2273.87,301.137C2270.26,304.437 2268.26,308.037 2269.37,313.437C2270.87,321.037 2268.26,323.937 2260.57,323.237C2249.66,322.237 2241.26,327.937 2232.66,332.937C2228.76,335.237 2219.87,333.037 2218.76,328.837C2218.26,327.137 2219.66,326.437 2220.76,325.837C2227.26,322.337 2232.66,317.437 2237.37,311.837C2243.47,304.637 2251.57,299.837 2258.57,293.737C2271.16,282.737 2279.66,268.537 2288.66,254.837C2292.47,249.037 2294.97,242.837 2296.47,236.137C2297.26,232.437 2298.66,228.737 2302.57,227.037C2302.64,227.076 2302.72,227.113 2302.8,227.15L2308.66,223.337C2308.68,223.336 2308.7,223.336 2308.72,223.335C2308.7,223.303 2308.68,223.27 2308.66,223.237C2311.87,220.237 2315.16,217.237 2318.47,214.237C2318.49,214.29 2318.52,214.342 2318.55,214.394C2318.55,214.375 2318.56,214.356 2318.57,214.337C2328.16,206.325 2337.75,198.509 2349.28,193.502C2349.38,193.413 2349.47,193.325 2349.57,193.237C2353.57,190.137 2358.37,188.737 2362.97,186.837C2366.47,185.337 2368.37,183.537 2367.76,179.537C2367.57,178.137 2368.26,176.637 2368.66,175.237L2368.67,175.234C2368.79,169.074 2371.27,163.404 2372.57,157.437C2372.6,157.491 2372.64,157.545 2372.68,157.6C2372.64,157.512 2372.6,157.425 2372.57,157.337C2372.47,157.278 2372.37,157.219 2372.28,157.16C2372.37,157.253 2372.47,157.345 2372.57,157.437C2370.67,157.936 2369.77,160.129 2367.68,160.236L2367.66,160.237C2362.57,162.437 2357.57,164.737 2352.47,166.837C2348.57,168.437 2346.97,171.137 2347.66,175.237L2347.7,175.336C2350.47,183.755 2350.62,186.039 2339.07,186.637C2337.87,186.837 2336.76,186.337 2335.66,186.137L2335.63,186.13ZM2461.66,235.937C2453.16,242.737 2444.16,248.237 2434.57,252.637C2430.26,254.637 2426.47,257.137 2422.87,260.037C2416.37,265.137 2409.47,269.537 2400.87,270.537C2397.97,270.837 2397.76,270.137 2398.16,267.337C2399.87,254.437 2405.07,243.337 2414.26,233.937C2416.87,231.237 2419.57,228.237 2421.16,224.837C2423.66,219.637 2428.76,218.337 2432.87,215.437C2434.16,214.537 2434.97,215.737 2435.87,216.337C2444.26,222.837 2452.76,229.237 2461.66,235.937Z" style="fill:white;"/>
                    </g>
                </g>
            </g>
        </g>
    </g>
</svg>
