<?xml version="1.0" encoding="UTF-8" standalone="no"?>
<!DOCTYPE svg PUBLIC "-//W3C//DTD SVG 1.1//EN" "http://www.w3.org/Graphics/SVG/1.1/DTD/svg11.dtd">
<svg width="100%" height="100%" viewBox="0 0 278 278" version="1.1" xmlns="http://www.w3.org/2000/svg" xmlns:xlink="http://www.w3.org/1999/xlink" xml:space="preserve" xmlns:serif="http://www.serif.com/" style="fill-rule:evenodd;clip-rule:evenodd;stroke-linejoin:round;stroke-miterlimit:1.41421;">
    <g transform="matrix(1,0,0,1,-12050.4,-112.302)">
        <g transform="matrix(1,0,0,1,8959.38,1.30208)">
            <g transform="matrix(0.996416,0,0,0.996416,2459.27,-0.598566)">
                <circle cx="773.5" cy="251.5" r="139.5" class="fill" fill="rgb(26,153,245)"/>
            </g>
        </g>
        <g transform="matrix(1,0,0,1,8959.38,1.30208)">
            <g transform="matrix(0.263465,0,0,0.263465,1290.38,53.8088)">
                <g>
                    <path d="M7184.74,1003.42L7184.74,1003.38C7184.74,892.996 7274.36,803.379 7384.74,803.379C7495.12,803.379 7584.74,892.996 7584.74,1003.38L7584.74,1003.42L7584.74,1003.46L7584.74,1003.74L7584.74,1004.02L7584.74,1004.07C7584.53,1074.99 7547.33,1137.26 7491.4,1172.57L7491.4,1172.56C7547.29,1137.22 7584.5,1074.97 7584.74,1004.07L7584.74,1003.74L7584.74,1003.42C7584.72,893.055 7495.11,803.46 7384.74,803.46C7377.83,803.46 7371.01,803.811 7364.32,804.492L7365.05,827.573C7365.3,844.771 7369.65,861.664 7377.74,876.843C7407.44,932.655 7441.85,985.331 7479.24,1036.23C7483.34,1041.82 7488.63,1042.69 7494.22,1044.99C7504.38,1049.17 7513.71,1055.38 7526.23,1062.31C7518.31,1063.42 7512.99,1064.52 7507.61,1064.83C7502.23,1065.14 7499.87,1067.62 7499.46,1073.17L7491.4,1172.56C7484.27,1177.06 7476.84,1181.13 7469.14,1184.72L7469.14,1184.76C7443.52,1196.77 7414.9,1203.46 7384.74,1203.46C7274.36,1203.46 7184.74,1113.84 7184.74,1003.46L7184.74,1003.42ZM7469.14,1184.72C7471.74,1151.42 7474.05,1118.03 7477.27,1084.72C7478.54,1071.47 7478.33,1069.05 7465.33,1070.25C7452.32,1071.45 7438.97,1074.97 7425.77,1077.37C7412.57,1079.77 7399.45,1082.01 7385.67,1084.43C7383.35,1100.13 7368.64,1105.72 7355.99,1111.53C7339.4,1119.09 7321.6,1124.18 7304.05,1129.35C7299.3,1130.25 7294.39,1129.13 7290.5,1126.27C7285.31,1122.23 7286.03,1116 7289.71,1110.56C7298.16,1098.02 7306.31,1085.23 7315.29,1073.05C7321.1,1065.31 7322.3,1059.51 7314.69,1051.5C7307.72,1044.18 7302.61,1034.83 7297.91,1025.76C7295.57,1021.21 7295.18,1015.23 7295.34,1009.93C7295.7,1000.03 7296.57,990.163 7297.95,980.357C7298.58,977.656 7300.1,975.239 7302.25,973.487C7304.86,971.204 7308.38,969.965 7311.23,967.875C7322.34,959.767 7329.57,950.845 7330.58,935.074C7331.57,918.547 7339.04,902.407 7343.47,886.055C7345.74,878.242 7347.57,870.308 7348.94,862.291C7351.69,844.313 7353.86,826.257 7356.24,808.24L7356.42,805.497C7259.44,819.223 7184.76,902.666 7184.74,1003.42C7184.76,1113.78 7274.37,1203.38 7384.74,1203.38C7414.89,1203.38 7443.49,1196.69 7469.14,1184.72ZM7377.49,1082.17C7352.33,1075.11 7346.27,1077.45 7328.74,1101.67C7340.16,1100.34 7351.52,1105.99 7358.25,1092.71C7358.91,1091.4 7361.83,1089.83 7362.82,1090.3C7371.93,1094.5 7373,1086.25 7377.49,1082.17ZM7368.51,940.511C7371.45,947.401 7378.19,955.722 7377.41,963.366C7376.66,971.63 7369.01,979.274 7363.5,988.679C7373.73,998.626 7363.5,1012.29 7364.77,1025.33L7362.57,1027.15L7347.49,1009.23L7353.59,985.834C7347.78,986.414 7338.94,980.125 7335.65,991.446C7333.81,998.908 7332.42,1006.48 7331.51,1014.11C7330.09,1020.07 7333.62,1026.18 7339.5,1027.92C7358.43,1034.83 7372.55,1050.55 7393.01,1055.35C7403.79,1057.88 7413.23,1059.53 7423.76,1055.87C7429.24,1054.29 7434.9,1053.39 7440.6,1053.2C7445.55,1052.77 7450.56,1053.2 7457.24,1053.2C7426.62,995.142 7404.27,934.551 7360.15,885.61L7345.5,936.815L7368.51,940.511Z" style="fill:white;"/>
                </g>
            </g>
        </g>
        <g transform="matrix(1,0,0,1,8959.38,1.30208)">
            <g transform="matrix(0.377728,0,0,0.377728,2872.56,223.187)">
                <circle cx="773.5" cy="251.5" r="139.5" style="fill:none;"/>
                <clipPath id="_clip1">
                    <circle cx="773.5" cy="251.5" r="139.5"/>
                </clipPath>
                <g clip-path="url(#_clip1)">
                    <g transform="matrix(1.54513,0,0,1.54513,659.107,112.462)">
                        <path d="M103.8,0C104.9,14.1 105.9,28.2 107,42.1C107.5,42.4 107.8,42.7 108,42.7C117.3,43 120,47.1 114.8,54.8C110.8,60.8 108.2,67 108.1,74.1C108.1,75.8 108.8,78.3 110.1,79.2C114.8,82.4 116.4,87.8 119.8,91.5C126.2,98.4 124.1,106.1 124.7,113.7C124.9,116.3 126.4,119 128.1,121.1C130.5,124.2 130.2,130.8 127.1,133.2C125.9,134.2 124.3,135.5 124.1,136.9C123.5,140.6 121.1,140.9 118.2,140.7C111.8,140.3 105.8,136.9 105.4,132.2C105.1,128.6 106.6,124.8 107.4,120.8C104.5,121.3 101.6,122.7 100.9,127C100.6,128.6 99.9,131 98.8,131.5C96.9,132.3 94.2,132.4 92.2,131.7C91.4,131.4 91.6,128.4 91.3,126.5C90,125.3 88.4,123.8 87.2,122.7C93.5,118.5 99.2,114.7 105.2,110.7C100.3,107.6 102.9,99 96.5,95.1C95.8,94.7 96.1,92.7 96.1,92.9C87.8,89.4 80.3,86 72.6,83.2C69.8,82.2 66.5,82 63.5,82.1C57.9,82.3 52.3,83 46.6,83.6C44.6,83.8 42.6,84 40.8,84.8C37.3,86.4 35,85.9 33,82.3C31.2,79 22.4,77 18.5,79C15.4,80.6 13.3,80 10.8,78C8.8,76.3 6.3,75.2 4.2,73.5C2.6,72.1 1.3,70.3 -0.1,68.6C0.2,68.1 0.4,67.7 0.7,67.2C2.4,67.3 4.1,67.3 5.7,67.7C10.4,68.9 14.9,70.6 19.6,71.7C24,72.8 28.4,74.5 33,71.3C34.5,70.3 37.2,71.2 39.4,71C46.6,70.6 47.4,70 47.5,62.9C47.9,47.4 48.1,31.9 48.2,16.4C48.2,10.9 47.9,5.4 47.7,-0.1C48.4,-0.1 49,-0.1 49.7,-0.1C50.3,22.8 50.8,45.7 51.3,67.7C62.7,68.5 73.4,69.4 84.1,69.8C86,69.9 88.5,68.3 89.8,66.7C92.9,62.8 95.4,58.5 98.4,54C92.7,51 87.3,47.2 80.5,51.2C79.9,51.6 78.4,51.5 77.9,51C74.8,48.3 71.7,45.6 68.9,42.5C67.9,41.4 67.8,39.5 67,36.7C74.3,39.2 80.1,42.1 86.2,43C92,43.8 98.1,42.6 104.6,42.2C103.6,28 102.7,13.9 101.7,-0.1C102.5,0 103.1,0 103.8,0Z" style="fill:white;fill-rule:nonzero;"/>
                    </g>
                </g>
            </g>
        </g>
        <g transform="matrix(1,0,0,1,8959.38,1.30208)">
            <g transform="matrix(0.377728,0,0,0.377728,3009.1,200.209)">
                <circle cx="773.5" cy="251.5" r="139.5" style="fill:none;"/>
                <clipPath id="_clip2">
                    <circle cx="773.5" cy="251.5" r="139.5"/>
                </clipPath>
                <g clip-path="url(#_clip2)">
                    <g transform="matrix(0.697269,0,0,0.697269,648.122,144.984)">
                        <path d="M377,370.1C356.1,372 335.6,368.4 314.4,369.4C316.3,366.5 319.3,369.2 320.8,367.2C315.5,364 308.5,363.9 304.3,367.8C302,370 299.2,369.3 298.1,368.4C296.1,366.6 299.1,365.2 299.8,363.3C301.9,369.3 303.6,362.7 305.6,363.1C297.5,361.4 289.4,359.7 281.3,358.1C263.9,354.5 246.4,351 229,347.5C221.2,345.9 213.3,344.5 205.5,343C200.6,342.1 196,343.9 191.3,344.2C182.8,344.6 173.9,344.9 165.5,342.6C163,341.9 160.1,342.7 157.9,340.3C161.9,336.6 167.4,336.9 172.1,335.2C174.6,334.3 175.6,333.2 174.6,330.8C169.8,319.2 169.8,306.8 169,294.5C168.7,290 169.3,285.5 169.6,281.1C170.2,271.7 168.5,262.5 168,253.2C167.8,249 170.8,246.9 172,243.7C174.3,237.1 173.5,231.5 170.3,225.6C168,227.5 169.9,229.9 169.5,232C168.1,231.8 167.8,230.7 167.6,229.9C165.7,221.8 161.5,214.6 158.8,206.9C154.6,195 150.3,183.1 148.1,170.5C147.8,169 147.1,168.2 145.6,167.3C140.1,164 135.5,159.8 131.8,154.2C129.2,150.2 126.3,144.1 118.9,145.2C117,145.5 112.6,145.5 112.1,140.8C112,139.9 108.1,141.2 106,139.4C100.8,134.6 94.2,132 88.1,128.7C82.1,125.5 75.9,122.2 69.3,120.8C57.4,118.2 47.9,111 37.6,105.4C31.7,102.2 25.3,100.1 19.4,96.8C16.1,94.9 12.1,95.8 8.7,96.7C4.1,97.9 1.4,95.9 0.2,92.2C-1.3,87.6 3.1,87.2 6,85.1C6.7,88.8 2.8,90.3 3.6,93.7C6.1,90.9 9.8,89.6 9.2,84.8C8.9,82.4 10.4,79.9 12.9,78.7C15.5,77.5 16.8,79.8 18.4,81.1C20,82.4 21.5,83.8 23.4,84.3C45.2,90.4 66,99.6 88.4,103.5C97.1,105 105.4,108.3 114,110.1C127.2,112.8 140.3,116 153.9,115.4C161.6,115.1 167.4,111.9 172.4,106.1C178.2,99.2 185.8,94.2 192.7,88.3C197,84.6 201.4,81.1 205.8,77.5C207.4,76.1 208.8,74.3 211.4,74.9C212.9,75.2 213.7,74.2 213.7,72.9C213.7,66.4 218.3,62.5 221.8,57.9C227.7,50.2 234.9,43.9 242.6,36.2C241.7,39.2 241.2,41 240.7,42.8C242.7,42 243.4,40.3 243.6,38.5C243.7,37.7 243.6,36.3 244,36.1C249.8,34 246.9,29.8 246.5,26.2C246.2,23.3 247.4,20.9 250.2,20.5C262.1,18.8 269.4,9.8 278.3,3.3C280.6,1.6 282.9,-0.8 285.8,1.1C288.5,2.8 287.2,5.7 287,8.3C286.2,20.7 277.6,26.2 267.6,30.4C264.8,31.6 263,33.3 261.5,35.9C255.4,46.2 249.1,56.4 242.8,66.6C237.7,75 232.4,83.2 224.8,89.8C220.7,93.4 218,98 216.6,103.3C214.4,111.5 210.5,118.9 205,125.2C194.6,137.3 194.3,149.4 202.4,163C206.3,169.6 212.6,173.7 217.1,179.6C219.6,182.9 222.4,185.7 225.8,188.3C234.2,194.7 242.3,197.9 252.7,192.5C256.3,190.6 261.5,191.9 266,191.7C286.4,191.1 306.8,190.5 326.4,197.6C326.9,197.8 327.4,198 327.8,197.9C335.7,195.4 341.9,199.9 348.5,202.9C352.4,204.6 354.8,207.6 357.4,210.5C359.6,213 357.6,216 353.3,216C347.5,216 341.7,215.2 336,214.7C335,214.6 333.8,214.4 333.2,213.7C323.5,203.9 311.4,208.1 300.3,208.6C293.3,209 286.6,209.6 279.5,208.5C269.4,206.9 259.3,206.9 249.8,212.7C243.9,216.3 237.3,218.9 229.9,218.4C228.5,218.3 220.9,225.5 221,227.1C221.2,230.1 223.3,232 225.8,233.6C232.5,238.1 236.2,244.5 236,252.5C235.9,259 231.7,264.3 228.1,269.3C225.2,273.3 215.5,272.1 210.1,268C203.4,262.8 202.4,254.2 198.1,247.6C197.7,246.9 198.2,246.3 199,246.3C200.5,246.2 201.4,245.8 200.2,244.2C199.2,242.9 199.1,240.7 197.2,240.5C196.1,240.4 194.5,241.3 194.3,242.9C193.8,248.3 189.8,252.1 187.8,256.8C187.7,257.1 187.3,257.4 187.3,257.6C188.9,269.7 180.9,280.8 183.8,293.2C186.2,303.2 184,313.5 185.5,323.6C185.9,326.1 186.2,328.5 186.5,331C186.7,332.4 187,333.9 188.4,334.3C192.9,335.6 196.1,339.2 201.1,339.9C234,345.1 266.8,350.7 299.6,356.3C311.2,358.3 322.9,360.5 334.5,362.1C338.4,362.6 342.3,363.3 346,364.3C349,365.1 350.9,363.4 353.3,362.8C354.1,367.1 357.3,365.6 359.6,365C361.7,364.5 364.4,368.1 366,364.2C366,364.2 366.7,364.3 366.7,364.5C367.8,370.5 374.2,366.6 377,370.1Z" style="fill:white;fill-rule:nonzero;"/>
                    </g>
                </g>
            </g>
        </g>
        <g transform="matrix(1,0,0,1,8959.38,1.30208)">
            <g transform="matrix(0.377728,0,0,0.377728,3003.1,128.801)">
                <circle cx="773.5" cy="251.5" r="139.5" style="fill:none;"/>
                <clipPath id="_clip3">
                    <circle cx="773.5" cy="251.5" r="139.5"/>
                </clipPath>
                <g clip-path="url(#_clip3)">
                    <g transform="matrix(0.732088,0,0,0.732088,604.524,71.551)">
                        <g transform="matrix(1.01205,0,0,1.01205,-1694.53,-19.25)">
                            <path d="M1922.56,97.002C1952.55,97.287 1981.54,114.919 1995.49,141.347C2007.44,163.996 2008.09,192.325 1997.07,215.545C1981.53,248.268 1943.26,268.641 1906.31,261.553C1872.43,255.054 1844.31,225.349 1839.74,191.106C1836.23,164.912 1846.09,137.3 1865.48,119.252C1880.54,105.234 1900.88,97.198 1921.48,97.002C1921.84,97.001 1922.2,97.001 1922.56,97.002ZM1921.52,103.097C1893.2,103.367 1865.97,120.34 1853.3,145.433C1842.81,166.222 1842.48,191.867 1852.48,212.93C1866.89,243.286 1902.33,262.137 1936.58,255.567C1967.96,249.548 1994.02,222.013 1998.26,190.298C2001.4,166.795 1992.97,142.007 1976.08,125.312C1961.97,111.373 1942.43,103.287 1922.52,103.097C1922.19,103.096 1921.85,103.096 1921.52,103.097Z" style="fill:white;fill-rule:nonzero;"/>
                        </g>
                        <g transform="matrix(2.03867,-0.546259,0.546259,2.03867,66.5559,-7.78171)">
                            <path d="M51.95,63.803C51.979,65.094 48.712,66.272 48.799,62.9C49.199,47.4 48.1,31.9 48.2,16.4C48.2,10.9 47.9,5.4 47.7,-0.1C48.4,-0.1 49,-0.1 49.7,-0.1C50.3,22.8 51.45,41.803 51.95,63.803Z" style="fill:white;fill-rule:nonzero;"/>
                        </g>
                        <g transform="matrix(-2.03867,-0.546259,-0.546259,2.03867,437.318,-6.41084)">
                            <path d="M51.95,63.803C51.979,65.094 48.712,66.272 48.799,62.9C49.199,47.4 48.1,31.9 48.2,16.4C48.2,10.9 47.9,5.4 47.7,-0.1C48.4,-0.1 49,-0.1 49.7,-0.1C50.3,22.8 51.45,41.803 51.95,63.803Z" style="fill:white;fill-rule:nonzero;"/>
                        </g>
                        <g transform="matrix(1.37087,0,0,1.37087,-2357.39,-96.9151)">
                            <path d="M1843.78,181.299C1843.98,180.632 1877.28,177.013 1880.21,178.856C1880.38,178.827 1902.13,178.45 1902.89,179.77L1903.24,179.786C1904.12,179.827 1905,179.885 1905.83,180.219L1905.83,180.223C1906.46,180.279 1907.13,180.024 1907.83,180.525C1907.02,181.543 1905.86,181.475 1904.85,181.645C1903.79,181.814 1902.88,181.712 1901.86,182.527C1900.91,183.272 1899.29,183.611 1897.86,183.039L1897.86,183.036C1896.97,183.07 1896.06,183.205 1895.17,183.138C1897.79,183.338 1892.39,183.913 1891.48,184.97C1890.47,186.132 1881.63,187.349 1881.23,185.716C1881.23,185.714 1881.24,185.712 1881.24,185.709C1880.9,185.612 1880.55,185.553 1880.31,185.784C1877.46,188.465 1873.59,188.295 1870.2,189.415C1868.67,189.89 1866.88,189.619 1865.79,191.179C1865.77,191.182 1865.75,191.184 1865.73,191.186C1865.01,192.134 1863.91,192.3 1862.94,192.367C1861.55,192.469 1862.02,193.08 1862.33,193.758C1862.35,193.804 1862.37,193.853 1862.39,193.903C1862.97,194.548 1863.51,195.22 1864.06,195.862C1864.7,196.778 1865.35,197.694 1865.99,198.611L1867.68,201.889C1867.71,201.916 1867.73,201.943 1867.76,201.97C1867.8,201.985 1867.84,202 1867.88,202.014L1867.91,202.027C1867.95,202.042 1867.99,202.057 1868.03,202.072C1868.95,203.904 1869.42,206.144 1871.86,206.686C1871.69,206.679 1871.52,206.676 1871.34,206.675C1871.52,206.708 1871.69,206.725 1871.86,206.72C1877.33,209.062 1881.84,212.319 1883.33,218.495C1883.7,220.047 1883.81,221.666 1884.04,223.286C1884.04,223.284 1884.04,223.281 1884.05,223.279C1884.76,224.806 1884.49,226.537 1885.06,228.098L1885.04,228.13C1885.05,228.13 1885.05,228.131 1885.06,228.131C1885.64,229.318 1886.12,230.573 1887.1,231.523C1887.09,231.501 1887.08,231.479 1887.07,231.457C1888.86,232.509 1890.66,233.527 1892.43,234.579C1892.34,234.571 1892.26,234.563 1892.17,234.554C1892.27,234.585 1892.37,234.616 1892.46,234.646C1892.68,234.774 1892.91,234.871 1893.13,234.995C1893.13,234.981 1893.13,234.966 1893.14,234.952C1894.84,235.257 1896.4,235.936 1897.99,236.547C1897.94,236.558 1897.89,236.568 1897.84,236.577C1897.85,236.58 1897.86,236.583 1897.88,236.586C1897.89,236.584 1897.91,236.582 1897.92,236.581L1897.95,236.585L1897.96,236.581C1897.96,236.581 1897.98,236.556 1897.99,236.59C1900.31,236.925 1902.63,237.198 1904.91,237.904C1906.81,238.481 1908.88,238.141 1910.85,237.802C1911.29,237.734 1911.7,237.565 1912.17,237.632L1912.27,237.594C1914.27,236.793 1916.25,235.991 1918.25,235.189L1918.25,235.181C1918.25,233.691 1917.16,232.37 1917.57,230.812C1917.57,230.79 1917.57,230.769 1917.58,230.747C1917.23,229.96 1917.22,229.267 1917.91,228.607C1918.62,227.928 1918.45,226.842 1919,226.062C1919,226.035 1919.01,226.009 1919.01,225.983C1918.98,226.009 1918.96,226.035 1918.93,226.062C1918.38,224.636 1918.76,224.128 1921.07,223.076C1921.06,223.107 1921.06,223.138 1921.05,223.169C1921.08,223.138 1921.11,223.107 1921.13,223.076C1922.86,221.956 1924.66,220.836 1926.46,219.716C1926.66,219.682 1926.87,219.615 1927.07,219.581C1927.08,219.577 1927.09,219.574 1927.1,219.57C1927.08,219.574 1927.06,219.577 1927.04,219.581C1927.78,219.004 1928.63,218.936 1929.48,218.936C1930.26,218.936 1931.04,218.936 1931.79,218.902C1931.81,218.894 1931.82,218.886 1931.84,218.879C1932.07,218.549 1932.3,218.249 1932.53,217.918C1933.55,218.29 1934.7,218.224 1935.55,218.965L1935.55,218.97C1935.69,219.008 1935.83,219.046 1935.96,219.084L1936.23,219.161C1936.37,219.199 1936.5,219.237 1936.64,219.275C1936.64,219.479 1936.64,219.682 1936.61,219.886C1936.6,219.892 1936.58,219.898 1936.57,219.903C1936.6,219.909 1936.62,219.914 1936.64,219.92C1937.5,220 1937.95,220.585 1938.39,221.178C1938.79,221.204 1939.21,221.216 1939.59,221.141C1940.88,221.752 1942.41,221.922 1943.22,223.279C1943.25,223.499 1943.28,223.756 1943.27,223.991C1943.86,224.362 1944.26,224.833 1943.74,225.75C1943.84,226.557 1943.94,227.36 1944.57,227.768L1945.39,228.03C1948.18,224.806 1953.4,221.243 1955.61,217.613C1956.15,216.73 1956.52,215.848 1956.86,214.898C1956.9,213.778 1956.97,212.658 1956.73,211.539C1956.85,211.359 1956.97,211.175 1957.08,210.991C1957,210.597 1956.97,210.183 1956.76,209.842C1956.76,209.838 1956.77,209.834 1956.77,209.831L1956.73,209.842C1956.24,209.536 1956.05,209.147 1956.17,208.625C1956.13,208.59 1956.09,208.554 1956.05,208.519C1956.02,208.349 1956.05,208.213 1956.18,208.112C1957.04,206.743 1959.08,205.65 1959.8,204.195C1959.74,203.959 1959.64,203.715 1959.53,203.463C1959.42,203.259 1959.58,203.019 1959.53,202.818C1959.33,201.999 1963.18,199.575 1964.35,200.986C1964.82,201.732 1964.65,202.75 1965.4,203.361C1966.9,205.103 1966.53,208.135 1965.39,209.681C1965.45,209.684 1965.52,209.692 1965.58,209.706C1966.09,209.978 1966.09,210.453 1966.13,210.928C1966.31,212.217 1965.38,213.255 1965.28,214.496C1965.31,214.546 1965.35,214.6 1965.38,214.66C1965.52,214.966 1965.41,215.339 1965.65,215.611C1966.5,218.325 1964.16,221.141 1964.67,223.958C1965.04,226.062 1965.21,228.199 1964.09,230.167C1964.08,230.171 1964.07,230.175 1964.05,230.179C1963.95,230.413 1963.85,230.646 1963.75,230.846L1963.75,230.851C1963.76,230.849 1963.77,230.848 1963.79,230.846C1963.74,231.005 1963.68,231.164 1963.63,231.323L1963.61,231.387C1963.55,231.546 1963.49,231.705 1963.45,231.864C1963.43,231.869 1963.42,231.873 1963.41,231.877C1963.43,231.884 1963.46,231.891 1963.48,231.898C1963.45,232.95 1962.8,233.628 1962.02,234.239C1961.96,234.315 1961.9,234.37 1961.84,234.408C1961,235.406 1959.65,235.233 1958.56,235.726C1958.49,235.776 1958.41,235.823 1958.32,235.868C1957.95,236.004 1957.64,236.173 1957.34,236.308C1957.33,236.32 1957.32,236.331 1957.31,236.343C1955.34,237.429 1953.13,237.87 1951.03,238.583C1950.18,238.853 1949.2,238.922 1948.49,239.664L1948.48,239.668C1948.86,240.686 1948.92,241.535 1947.57,241.84C1947.26,241.908 1946.68,242.145 1946.89,242.417C1947.77,243.638 1946.65,244.724 1946.75,245.878C1946.82,246.624 1946.51,247.032 1945.8,247.167C1945.7,247.278 1945.6,247.377 1945.5,247.466C1944.94,248.479 1945.19,249.989 1943.76,250.516C1943.76,250.519 1943.76,250.523 1943.77,250.527C1942.95,251.171 1942.17,250.798 1941.39,250.493C1940.61,250.159 1939.85,249.81 1939.08,249.46L1938.78,249.32C1938.01,248.97 1937.25,248.621 1936.47,248.287C1935.93,248.05 1935.15,247.473 1934.77,248.016C1934.4,248.559 1934.43,249.475 1934.88,250.119C1935.15,250.527 1935.55,250.9 1934.94,251.205C1933.86,251.748 1932.67,252.63 1931.58,252.563C1930.01,252.495 1929.22,253.127 1928.48,254.227C1928.49,254.238 1928.49,254.248 1928.5,254.259C1930.74,256.533 1933.21,258.602 1935.25,261.113L1935.25,261.13C1936.23,262.496 1937.54,263.532 1939.02,264.337C1943.19,266.576 1947.16,269.257 1951.54,271.157C1951.55,271.172 1951.56,271.186 1951.57,271.199C1955.84,272.181 1960.1,273.232 1964.09,275.093C1966.23,276.111 1968.33,277.231 1970.54,278.079C1973.52,279.199 1976.65,280.081 1979.67,281.065C1980.55,281.37 1981.53,281.506 1982.07,282.417L1982.08,282.423C1982.19,282.518 1982.29,282.621 1982.39,282.724L1982.43,282.766C1982.53,282.864 1982.63,282.961 1982.74,283.053C1982.74,283.046 1982.75,283.04 1982.75,283.034C1985.03,284.56 1987.4,285.816 1989.51,287.513C1989.5,287.52 1989.49,287.528 1989.48,287.536C1989.49,287.539 1989.5,287.543 1989.51,287.546C1991.68,289.107 1993.82,290.736 1996.06,292.229C1997.01,292.874 1998.19,293.179 1999.28,293.62C1999.82,293.824 2000.5,294.197 2000.3,294.74C2000.03,295.419 1999.45,294.706 1999.04,294.57C1997.72,294.197 1996.39,293.756 1995.07,293.349C1994.5,293.146 1994.06,293.145 1994.02,293.88C1995.15,295.681 1997.21,296.868 1997.55,299.219C1997.58,299.423 1997.62,299.626 1997.68,299.966C1996.53,299.83 1996.56,298.337 1995.51,298.269C1995.44,298.371 1995.41,298.405 1995.41,298.439C1995.24,299.151 1996.63,299.864 1995.78,300.305C1994.93,300.746 1994.7,299.423 1994.19,298.914C1993.81,298.503 1993.52,297.976 1993.21,297.494C1993.18,297.48 1993.16,297.467 1993.14,297.455C1992.63,296.878 1992.09,296.301 1991.58,295.69C1991.42,295.632 1991.26,295.575 1991.13,295.509L1990.78,295.281C1991.08,295.643 1991.29,296.116 1990.8,296.674C1990.66,296.844 1990.49,297.014 1990.39,297.183C1990.05,297.692 1990.8,298.744 1990.12,298.778C1989.2,298.846 1989.54,297.658 1989.27,297.047C1988.39,295.215 1987.71,293.281 1986.15,291.856C1985.98,290.736 1985.37,290.159 1984.25,289.888C1982.67,289.486 1981.46,288.454 1980.38,287.219C1980.37,287.215 1980.36,287.211 1980.34,287.207C1979.6,286.053 1978.38,286.053 1977.22,285.918C1975.12,285.714 1972.95,286.02 1970.84,285.544C1970.8,285.532 1970.75,285.519 1970.71,285.507C1963.76,285.336 1956.86,284.98 1950.48,281.744L1950.48,281.743C1948.34,281.694 1947.16,280.126 1945.83,278.757C1936.74,275.194 1928.19,270.715 1920.39,264.812C1920.35,264.78 1920.31,264.748 1920.26,264.716C1920.27,264.725 1920.28,264.735 1920.29,264.744C1919.47,264.371 1916.83,262.805 1913.8,263.658C1910.87,264.486 1905.86,267.628 1902.34,267.119C1902.24,267.011 1902.12,266.974 1901.98,266.966C1902.09,267.019 1902.19,267.07 1902.3,267.119C1900.92,267.22 1897.35,266.271 1896.91,266.135L1896.9,266.136C1895.82,266.201 1889.1,261.046 1888.69,260.095C1888.69,260.09 1888.69,260.084 1888.68,260.078C1884.7,258.581 1881.59,255.843 1878.55,253.004C1877.29,252.461 1866.35,244.026 1865.07,242.102C1865.03,242.072 1864.98,242.041 1864.94,242.01C1864.84,241.965 1864.74,241.921 1864.64,241.876L1864.56,241.838C1864.46,241.793 1864.37,241.749 1864.26,241.704C1864.26,241.703 1864.26,241.702 1864.26,241.701C1863.88,241.658 1862.77,240.958 1862.67,241.094C1862.66,241.098 1862.65,241.102 1862.64,241.106C1862.75,242.186 1860.63,244.113 1860.63,244.113C1860.62,244.123 1860.61,244.133 1860.6,244.143C1860.63,244.133 1860.66,244.123 1860.7,244.113C1858.7,246.523 1857.85,249.746 1855.03,251.646C1852.9,253.072 1851.64,255.515 1849.94,257.449C1849.57,257.856 1849.16,258.263 1848.79,258.636C1848.76,258.597 1848.73,258.558 1848.71,258.519L1848.7,258.523C1848.71,258.572 1848.72,258.621 1848.72,258.67C1847.07,261.001 1845.14,263.084 1843.26,265.185C1843.19,265.308 1843.12,265.433 1843.06,265.559C1842.61,265.898 1842.14,266.237 1841.7,266.543C1841.34,266.774 1840.98,267.005 1840.59,267.192C1838.04,269.095 1835.95,271.638 1832.61,272.253C1832.57,272.283 1832.54,272.314 1832.5,272.345C1829.65,274.245 1827.35,276.722 1825.17,279.335C1822.87,282.117 1820.29,284.628 1817.47,286.902C1817.35,287.002 1817.23,287.103 1817.11,287.204C1815.36,289.181 1813.34,290.877 1811.36,292.602C1810.94,293.486 1810.23,294.086 1809.45,294.584C1809.44,294.602 1809.43,294.62 1809.43,294.638C1809.37,294.692 1809.3,294.744 1809.24,294.797C1808.24,296.051 1807.1,297.129 1805.77,298.057C1805.76,298.082 1805.74,298.108 1805.73,298.133C1804.41,299.592 1802.88,300.882 1801.35,302.137C1801.34,302.143 1801.32,302.15 1801.31,302.156C1800.82,302.874 1800.36,303.623 1799.9,304.342C1799.9,304.365 1799.9,304.388 1799.89,304.411C1797.79,306.684 1795.48,308.822 1793.62,311.333C1791.92,313.64 1789.55,315.269 1788.02,317.678C1786.53,318.56 1785.54,317.712 1784.62,316.66C1784.62,315.88 1784.62,315.065 1784.62,314.285C1784.79,314.115 1784.96,313.946 1785.2,313.844C1785.29,313.839 1785.38,313.83 1785.46,313.818C1786.08,312.391 1786.25,310.763 1787.41,309.602C1788.76,309.195 1789.31,307.872 1790.29,307.057L1790.3,307.045C1791.55,304.979 1791.78,302.846 1790.66,300.644C1790.39,300.101 1790.29,299.457 1790.19,298.846C1789.44,294.876 1790.46,293.586 1794.47,293.688C1796.81,293.756 1798.47,292.568 1799.89,291.008C1801.56,289.243 1803.05,287.343 1804.61,285.477C1804.62,285.476 1804.62,285.475 1804.63,285.474C1804.62,285.464 1804.62,285.453 1804.61,285.443C1807.29,281.744 1809.39,277.706 1812.35,274.211L1812.36,274.197C1813.78,271.795 1815.95,270.102 1818.12,268.443C1818.13,268.437 1818.14,268.432 1818.16,268.427C1818.14,268.421 1818.13,268.415 1818.12,268.409C1820.73,266.067 1823.85,264.507 1826.97,263.014C1826.97,263.046 1826.97,263.078 1826.97,263.109C1826.98,263.089 1826.99,263.068 1827.01,263.048C1827.45,262.606 1827.85,262.131 1828.3,261.69C1828.34,261.625 1828.39,261.56 1828.44,261.496C1828.38,261.548 1828.32,261.601 1828.26,261.656C1828.74,260.571 1829.25,259.553 1830.06,258.636C1830.07,258.666 1830.08,258.694 1830.09,258.723C1830.09,258.705 1830.09,258.688 1830.09,258.67C1830.97,257.145 1831.6,255.497 1832.63,254.08C1832.67,253.97 1832.7,253.861 1832.74,253.75C1833.72,251.477 1837.9,238.833 1841.19,232.582C1844.19,226.897 1847.51,221.745 1848.59,221.892C1848.61,221.843 1848.63,221.792 1848.64,221.739C1848.62,221.743 1846.31,216.12 1845.77,214.728C1844.21,210.724 1842.38,196.201 1842.41,194.166L1842.41,194.134C1842.51,191.463 1842.09,188.728 1843.05,186.121C1843.04,186.099 1843.03,186.077 1843.02,186.056C1843.09,184.461 1843.23,182.866 1843.7,181.305C1843.73,181.304 1843.75,181.301 1843.78,181.299ZM1947.44,230.036C1949.69,227.453 1951.76,224.749 1953.68,221.949C1955.45,219.379 1957.1,215.999 1958.68,213.288C1958.95,213.288 1959.22,213.288 1959.49,213.288C1960.07,213.689 1959.68,212.931 1959.99,213.868C1960.3,214.805 1960.87,215.073 1960.24,215.43C1959.84,215.653 1959.53,216.054 1959.66,216.456C1960.15,218.419 1958.86,219.892 1958.33,221.587C1958.06,221.9 1957.75,222.212 1957.52,222.569C1956.27,223.863 1955.69,225.603 1954.62,227.031C1954,228.013 1953.02,228.637 1951.99,229.083C1951.14,229.351 1950.52,229.976 1949.71,230.244C1948.69,230.645 1947.66,231.553 1947.44,230.036ZM1852.38,209.681C1852.28,209.329 1852.13,209.012 1852.06,208.695C1851.6,207.733 1851.76,206.415 1850.8,205.706L1850.8,205.702C1850.76,205.526 1850.73,205.385 1850.62,205.244C1850.09,204.716 1850.66,203.906 1850.16,203.378C1849.74,202.955 1849.53,202.391 1849.14,201.969C1848.26,199.997 1847.77,197.849 1846.39,195.524C1846.39,196.933 1846.39,197.849 1846.39,198.764C1846.43,199.187 1846.47,199.609 1846.5,200.032C1847.09,202.827 1847.79,205.588 1848.77,208.279L1848.79,208.343C1849.28,209.787 1849.78,211.231 1850.27,212.675L1850.27,212.671C1850.35,214.274 1851.33,215.43 1852.06,216.724C1853.83,215.879 1854.53,214.647 1853.54,212.815C1852.84,211.9 1852.63,210.773 1852.35,209.681L1852.38,209.681Z" style="fill:white;"/>
                        </g>
                    </g>
                </g>
            </g>
        </g>
        <g transform="matrix(1,0,0,1,8959.38,1.30208)">
            <g transform="matrix(0.377728,0,0,0.377728,2937.83,89.108)">
                <circle cx="773.5" cy="251.5" r="139.5" style="fill:none;"/>
                <clipPath id="_clip4">
                    <circle cx="773.5" cy="251.5" r="139.5"/>
                </clipPath>
                <g clip-path="url(#_clip4)">
                    <g transform="matrix(0.77277,0,0,0.77277,743.552,120.531)">
                        <path d="M2.9,376.623C2.9,365.023 3.1,276.7 3,265.1C3,243.8 2.9,222.5 2.7,201.2C2.7,197.4 1.1,193.6 1.2,189.8C1.6,176.8 2.9,163.9 3,150.9C3.2,114.8 3,78.7 2.9,42.6C2.9,37.1 3.4,31.6 3.1,26.1C2.9,22.8 1.8,19.5 0.6,16.5C-0.7,13.1 0.2,4.6 2.5,1.8C2.9,1.4 2.8,-48.751 2.9,-49.351C4.6,-49.351 6.2,-49.351 7.9,-49.351C8.7,-47.351 9.7,4 10.4,6.1C11,8 12,10 11.8,11.8C10.9,17.9 13.2,23 16.1,27.9C18.9,32.6 22.4,36.9 24.9,41.8C28.5,48.7 32.1,55.6 34.8,62.9C38.3,72.5 46.6,78.4 51.7,86.7C53.3,89.3 55.9,89.4 57.9,86.1C60.1,82.4 62.3,79.1 59.8,74.6C59.4,73.9 60.4,71.9 61.3,71.2C63.8,69.1 66.6,67.3 69.3,65.4C69.8,65.1 70.6,64.9 71.1,65.1C76.9,66.3 82.7,67.4 88.4,68.9C93.8,70.4 98.5,80.2 97.3,87.4C96,94.8 93.8,102 92.8,109.4C91.2,120.9 90.3,132.5 88.8,144C88.5,146.6 87,149.1 86.2,151.7C85.6,153.5 85.4,155.4 84.9,157.2C84.5,158.6 84,159.9 83.6,161.3C82.2,160.7 80.9,160.2 79.3,159.5C78.5,160.2 77.1,161.2 75.7,162.4C78.4,167.3 78.4,172.3 77,177.7C76.4,180.1 76.7,183.1 77.6,185.4C82.9,198.1 90,209.6 100.6,218.7C109.7,226.6 116.6,236 120.3,247.6C121.4,251.1 122.5,254.8 124.6,257.6C126.6,260.3 129.6,262.9 132.7,264.2C136.1,265.6 137.8,267.4 137.2,270.8C135.9,278.9 140,285.7 142.2,293C142.6,294.5 142.3,296.2 142.3,298.5C129.4,292.3 126.3,280.2 120,270.5C112.1,258.4 104.1,246.4 95.9,234.5C94.3,232.2 91.1,231.1 88.9,229.1C85.2,225.8 81.5,222.5 78.2,218.9C74,214.4 70.3,209.4 66.1,205C55.2,193.5 41.7,173.9 36.7,162.3C30.3,167.6 23.5,172.7 17.4,178.5C15.1,180.7 13.8,184.4 13,187.7C4.9,224.4 10.7,261.6 9.8,298.5C9.8,299 10,376.123 10.1,376.623C7.5,376.623 5.2,376.623 2.9,376.623ZM8.6,178C10.3,176.8 11,176.5 11.4,176C18,167.9 24.6,159.8 31,151.5C32.7,149.2 34.4,146.3 34.6,143.6C35,137.3 33.6,130.9 34.3,124.7C35.1,117.9 33.2,110.9 37.8,104.1C41.4,98.8 41,92.5 35.6,86.9C32,83.2 29.7,78.1 27.4,73.4C24,66.4 21.3,59.1 18,52C13,41.4 7.1,31 9,18.5C9.2,16.9 8.8,15.2 8.7,13.6C8.7,13.6 8.6,13.6 8.6,13.7C8.6,68 8.6,122.4 8.6,178ZM70.4,124.7C61.7,132.9 61.1,143.1 59.5,153.5C62.5,154.8 66.3,156.4 70.1,158.1C66,155.5 67.3,151.7 67.6,148.5C68.4,140.8 69.4,133 70.4,124.7Z" style="fill:white;fill-rule:nonzero;"/>
                    </g>
                </g>
            </g>
        </g>
        <g transform="matrix(1,0,0,1,8959.38,1.30208)">
            <g transform="matrix(0.377728,0,0,0.377728,2872.56,117.801)">
                <circle cx="773.5" cy="251.5" r="139.5" style="fill:none;"/>
                <clipPath id="_clip5">
                    <circle cx="773.5" cy="251.5" r="139.5"/>
                </clipPath>
                <g clip-path="url(#_clip5)">
                    <g transform="matrix(0.62189,0,0,0.62189,-729.042,58.6271)">
                        <path d="M2335.63,186.13C2332.75,185.543 2330.36,186.243 2327.76,187.837C2322.87,190.937 2317.76,193.537 2312.76,196.537C2311.57,197.237 2310.26,197.237 2308.97,197.337C2306.26,197.637 2304.16,196.037 2303.37,194.237C2302.57,192.337 2305.16,191.637 2306.66,190.737C2307.37,190.337 2307.97,189.737 2308.57,189.237L2308.6,189.191C2314.88,181.401 2319.48,172.126 2328.16,166.337C2329.66,165.437 2331.16,164.337 2332.66,163.337L2332.71,163.307C2340.19,158.212 2346.58,151.825 2352.87,145.437C2353.66,143.637 2355.16,142.437 2356.57,141.237C2356.6,141.28 2356.64,141.322 2356.67,141.365C2356.63,141.289 2356.6,141.213 2356.57,141.137C2363.26,132.637 2369.97,124.237 2376.66,115.737C2381.26,109.937 2387.47,107.737 2394.66,107.937C2401.37,108.137 2403.97,110.037 2405.66,116.537C2408.57,127.537 2409.26,138.837 2409.07,150.237C2408.97,154.937 2408.97,159.537 2408.57,164.237C2408.26,167.537 2409.47,168.237 2412.66,168.337C2426.66,168.737 2440.87,168.537 2454.26,172.437C2466.76,176.037 2478.87,181.237 2490.87,186.237C2497.76,189.137 2500.37,195.937 2501.57,202.737C2502.76,209.337 2505.57,214.137 2511.47,217.237C2512.97,218.037 2514.47,218.837 2515.47,220.137C2519.37,224.837 2523.87,226.837 2530.16,225.437C2533.57,224.637 2535.87,226.037 2536.66,230.637C2537.26,234.037 2537.07,238.737 2541.37,241.237C2542.87,242.137 2541.26,244.637 2540.16,246.037C2538.26,248.437 2537.26,250.537 2538.26,254.137C2539.66,258.937 2536.97,264.137 2538.37,269.237C2538.87,271.137 2536.66,272.637 2534.97,273.737C2525.76,279.937 2515.57,281.337 2504.97,279.037C2497.97,277.537 2494.87,272.237 2494.07,265.337C2486.66,269.737 2483.66,268.237 2482.26,259.937C2481.57,255.737 2483.07,253.837 2487.07,253.837C2491.26,253.937 2493.87,252.637 2494.57,248.137C2495.07,245.037 2497.57,244.037 2500.37,243.537C2501.16,243.337 2502.76,243.537 2502.47,242.137C2502.07,240.437 2500.47,241.137 2499.57,241.537C2494.47,243.937 2489.47,246.437 2484.37,248.937C2470.57,255.837 2455.47,259.637 2441.47,266.037C2431.19,270.709 2420.75,275.071 2410.31,279.42L2407.59,280.554C2404.41,281.878 2401.24,283.203 2398.07,284.537C2396.07,285.337 2394.87,286.537 2394.47,288.837C2391.76,306.037 2389.76,323.037 2394.97,340.237C2397.16,347.537 2394.97,355.237 2394.07,362.537C2392.16,377.437 2392.87,392.537 2390.07,407.237C2389.47,410.137 2390.76,411.437 2393.57,411.737C2401.37,412.537 2409.16,412.537 2416.87,411.037C2425.16,409.437 2433.47,409.937 2441.76,410.737C2444.26,411.037 2446.76,411.137 2449.16,410.537C2467.37,405.437 2482.07,411.637 2494.97,424.137C2496.37,425.537 2497.87,426.937 2498.37,428.937C2498.87,430.837 2499.76,432.537 2502.07,431.937C2504.37,431.337 2506.87,431.337 2507.66,428.037C2509.16,421.737 2509.47,422.237 2516.26,422.837C2519.87,423.137 2524.57,425.237 2527.26,420.037C2528.16,418.237 2530.07,419.937 2531.07,420.737C2534.37,423.337 2537.07,426.437 2542.26,425.137C2543.97,424.737 2546.37,426.937 2548.37,427.937C2550.47,429.037 2551.76,432.137 2555.07,430.137C2555.37,429.937 2556.66,431.137 2557.37,431.837C2565.76,439.637 2564.97,461.037 2554.97,467.737C2553.16,468.937 2551.26,470.037 2549.07,470.137C2542.87,470.337 2536.76,470.437 2530.57,469.737C2525.07,469.137 2520.37,466.837 2516.07,463.637C2512.87,461.237 2510.07,461.537 2507.97,464.737C2501.76,474.237 2491.87,476.737 2482.07,476.837C2464.47,477.037 2446.87,480.337 2429.26,478.237C2421.37,477.237 2413.76,479.737 2405.97,480.437C2392.72,481.623 2379.67,480.367 2366.72,478.116C2366.7,478.157 2366.68,478.197 2366.66,478.237C2364.68,478.138 2362.7,478.137 2360.71,478.235L2360.66,478.237C2352.66,481.937 2344.26,484.137 2335.57,485.537C2332.16,486.037 2328.66,488.137 2325.66,484.137C2325.07,483.437 2322.57,484.237 2320.87,484.237C2318.87,484.237 2317.26,483.337 2316.47,481.537C2315.76,479.937 2317.66,479.437 2318.16,478.437C2325.47,464.237 2339.37,464.237 2352.37,462.237C2352.54,462.214 2352.7,462.192 2352.86,462.171C2352.69,462.159 2352.53,462.147 2352.37,462.137C2353.45,460.958 2355.49,462.193 2356.42,460.528C2344.25,458.211 2337.17,448.32 2338.26,435.337C2338.76,429.837 2339.97,424.437 2342.07,419.337C2346.66,408.237 2349.37,396.637 2351.76,384.937C2353.66,375.637 2356.47,366.637 2360.76,358.137C2366.07,347.937 2366.66,337.137 2365.37,326.037C2364.26,316.837 2364.57,307.837 2368.37,299.137C2368.66,298.337 2370.26,296.437 2367.37,296.537C2363.16,296.637 2365.26,294.037 2366.57,293.537C2372.26,291.337 2372.37,285.837 2373.66,281.337C2376.76,271.037 2379.37,260.537 2382.37,250.237C2383.37,246.737 2382.07,243.737 2381.16,240.537C2380.57,238.137 2379.47,235.837 2378.87,233.437C2377.47,228.437 2374.26,226.137 2369.26,228.037C2353.66,233.937 2338.07,240.037 2322.97,247.337C2319.16,249.237 2317.07,252.337 2315.47,256.137C2310.97,266.837 2307.37,277.937 2297.16,285.137C2292.16,288.737 2286.66,291.537 2281.66,295.037C2278.97,296.937 2276.26,298.937 2273.87,301.137C2270.26,304.437 2268.26,308.037 2269.37,313.437C2270.87,321.037 2268.26,323.937 2260.57,323.237C2249.66,322.237 2241.26,327.937 2232.66,332.937C2228.76,335.237 2219.87,333.037 2218.76,328.837C2218.26,327.137 2219.66,326.437 2220.76,325.837C2227.26,322.337 2232.66,317.437 2237.37,311.837C2243.47,304.637 2251.57,299.837 2258.57,293.737C2271.16,282.737 2279.66,268.537 2288.66,254.837C2292.47,249.037 2294.97,242.837 2296.47,236.137C2297.26,232.437 2298.66,228.737 2302.57,227.037C2302.64,227.076 2302.72,227.113 2302.8,227.15L2308.66,223.337C2308.68,223.336 2308.7,223.336 2308.72,223.335C2308.7,223.303 2308.68,223.27 2308.66,223.237C2311.87,220.237 2315.16,217.237 2318.47,214.237C2318.49,214.29 2318.52,214.342 2318.55,214.394C2318.55,214.375 2318.56,214.356 2318.57,214.337C2328.16,206.325 2337.75,198.509 2349.28,193.502C2349.38,193.413 2349.47,193.325 2349.57,193.237C2353.57,190.137 2358.37,188.737 2362.97,186.837C2366.47,185.337 2368.37,183.537 2367.76,179.537C2367.57,178.137 2368.26,176.637 2368.66,175.237L2368.67,175.234C2368.79,169.074 2371.27,163.404 2372.57,157.437C2372.6,157.491 2372.64,157.545 2372.68,157.6C2372.64,157.512 2372.6,157.425 2372.57,157.337C2372.47,157.278 2372.37,157.219 2372.28,157.16C2372.37,157.253 2372.47,157.345 2372.57,157.437C2370.67,157.936 2369.77,160.129 2367.68,160.236L2367.66,160.237C2362.57,162.437 2357.57,164.737 2352.47,166.837C2348.57,168.437 2346.97,171.137 2347.66,175.237L2347.7,175.336C2350.47,183.755 2350.62,186.039 2339.07,186.637C2337.87,186.837 2336.76,186.337 2335.66,186.137L2335.63,186.13ZM2461.66,235.937C2453.16,242.737 2444.16,248.237 2434.57,252.637C2430.26,254.637 2426.47,257.137 2422.87,260.037C2416.37,265.137 2409.47,269.537 2400.87,270.537C2397.97,270.837 2397.76,270.137 2398.16,267.337C2399.87,254.437 2405.07,243.337 2414.26,233.937C2416.87,231.237 2419.57,228.237 2421.16,224.837C2423.66,219.637 2428.76,218.337 2432.87,215.437C2434.16,214.537 2434.97,215.737 2435.87,216.337C2444.26,222.837 2452.76,229.237 2461.66,235.937Z" style="fill:white;"/>
                    </g>
                </g>
            </g>
        </g>
    </g>
</svg>
