<?xml version="1.0" encoding="UTF-8" standalone="no"?>
<!DOCTYPE svg PUBLIC "-//W3C//DTD SVG 1.1//EN" "http://www.w3.org/Graphics/SVG/1.1/DTD/svg11.dtd">
<svg width="100%" height="100%" viewBox="0 0 278 278" version="1.1" xmlns="http://www.w3.org/2000/svg" xmlns:xlink="http://www.w3.org/1999/xlink" xml:space="preserve" xmlns:serif="http://www.serif.com/" style="fill-rule:evenodd;clip-rule:evenodd;stroke-linejoin:round;stroke-miterlimit:1.41421;">
    <g transform="matrix(1,0,0,1,-1203,-705)">
        <g transform="matrix(1,0,0,1,-1888,594)">
            <g transform="matrix(0.996416,0,0,0.996416,2459.27,-0.598566)">
                <circle cx="773.5" cy="251.5" r="139.5" fill="rgb(63,81,181)" class="fill"/>
                <clipPath id="_clip1">
                    <circle cx="773.5" cy="251.5" r="139.5"/>
                </clipPath>
                <g clip-path="url(#_clip1)">
                    <g transform="matrix(0.697269,0,0,0.697269,648.122,144.984)">
                        <path d="M377,370.1C356.1,372 335.6,368.4 314.4,369.4C316.3,366.5 319.3,369.2 320.8,367.2C315.5,364 308.5,363.9 304.3,367.8C302,370 299.2,369.3 298.1,368.4C296.1,366.6 299.1,365.2 299.8,363.3C301.9,369.3 303.6,362.7 305.6,363.1C297.5,361.4 289.4,359.7 281.3,358.1C263.9,354.5 246.4,351 229,347.5C221.2,345.9 213.3,344.5 205.5,343C200.6,342.1 196,343.9 191.3,344.2C182.8,344.6 173.9,344.9 165.5,342.6C163,341.9 160.1,342.7 157.9,340.3C161.9,336.6 167.4,336.9 172.1,335.2C174.6,334.3 175.6,333.2 174.6,330.8C169.8,319.2 169.8,306.8 169,294.5C168.7,290 169.3,285.5 169.6,281.1C170.2,271.7 168.5,262.5 168,253.2C167.8,249 170.8,246.9 172,243.7C174.3,237.1 173.5,231.5 170.3,225.6C168,227.5 169.9,229.9 169.5,232C168.1,231.8 167.8,230.7 167.6,229.9C165.7,221.8 161.5,214.6 158.8,206.9C154.6,195 150.3,183.1 148.1,170.5C147.8,169 147.1,168.2 145.6,167.3C140.1,164 135.5,159.8 131.8,154.2C129.2,150.2 126.3,144.1 118.9,145.2C117,145.5 112.6,145.5 112.1,140.8C112,139.9 108.1,141.2 106,139.4C100.8,134.6 94.2,132 88.1,128.7C82.1,125.5 75.9,122.2 69.3,120.8C57.4,118.2 47.9,111 37.6,105.4C31.7,102.2 25.3,100.1 19.4,96.8C16.1,94.9 12.1,95.8 8.7,96.7C4.1,97.9 1.4,95.9 0.2,92.2C-1.3,87.6 3.1,87.2 6,85.1C6.7,88.8 2.8,90.3 3.6,93.7C6.1,90.9 9.8,89.6 9.2,84.8C8.9,82.4 10.4,79.9 12.9,78.7C15.5,77.5 16.8,79.8 18.4,81.1C20,82.4 21.5,83.8 23.4,84.3C45.2,90.4 66,99.6 88.4,103.5C97.1,105 105.4,108.3 114,110.1C127.2,112.8 140.3,116 153.9,115.4C161.6,115.1 167.4,111.9 172.4,106.1C178.2,99.2 185.8,94.2 192.7,88.3C197,84.6 201.4,81.1 205.8,77.5C207.4,76.1 208.8,74.3 211.4,74.9C212.9,75.2 213.7,74.2 213.7,72.9C213.7,66.4 218.3,62.5 221.8,57.9C227.7,50.2 234.9,43.9 242.6,36.2C241.7,39.2 241.2,41 240.7,42.8C242.7,42 243.4,40.3 243.6,38.5C243.7,37.7 243.6,36.3 244,36.1C249.8,34 246.9,29.8 246.5,26.2C246.2,23.3 247.4,20.9 250.2,20.5C262.1,18.8 269.4,9.8 278.3,3.3C280.6,1.6 282.9,-0.8 285.8,1.1C288.5,2.8 287.2,5.7 287,8.3C286.2,20.7 277.6,26.2 267.6,30.4C264.8,31.6 263,33.3 261.5,35.9C255.4,46.2 249.1,56.4 242.8,66.6C237.7,75 232.4,83.2 224.8,89.8C220.7,93.4 218,98 216.6,103.3C214.4,111.5 210.5,118.9 205,125.2C194.6,137.3 194.3,149.4 202.4,163C206.3,169.6 212.6,173.7 217.1,179.6C219.6,182.9 222.4,185.7 225.8,188.3C234.2,194.7 242.3,197.9 252.7,192.5C256.3,190.6 261.5,191.9 266,191.7C286.4,191.1 306.8,190.5 326.4,197.6C326.9,197.8 327.4,198 327.8,197.9C335.7,195.4 341.9,199.9 348.5,202.9C352.4,204.6 354.8,207.6 357.4,210.5C359.6,213 357.6,216 353.3,216C347.5,216 341.7,215.2 336,214.7C335,214.6 333.8,214.4 333.2,213.7C323.5,203.9 311.4,208.1 300.3,208.6C293.3,209 286.6,209.6 279.5,208.5C269.4,206.9 259.3,206.9 249.8,212.7C243.9,216.3 237.3,218.9 229.9,218.4C228.5,218.3 220.9,225.5 221,227.1C221.2,230.1 223.3,232 225.8,233.6C232.5,238.1 236.2,244.5 236,252.5C235.9,259 231.7,264.3 228.1,269.3C225.2,273.3 215.5,272.1 210.1,268C203.4,262.8 202.4,254.2 198.1,247.6C197.7,246.9 198.2,246.3 199,246.3C200.5,246.2 201.4,245.8 200.2,244.2C199.2,242.9 199.1,240.7 197.2,240.5C196.1,240.4 194.5,241.3 194.3,242.9C193.8,248.3 189.8,252.1 187.8,256.8C187.7,257.1 187.3,257.4 187.3,257.6C188.9,269.7 180.9,280.8 183.8,293.2C186.2,303.2 184,313.5 185.5,323.6C185.9,326.1 186.2,328.5 186.5,331C186.7,332.4 187,333.9 188.4,334.3C192.9,335.6 196.1,339.2 201.1,339.9C234,345.1 266.8,350.7 299.6,356.3C311.2,358.3 322.9,360.5 334.5,362.1C338.4,362.6 342.3,363.3 346,364.3C349,365.1 350.9,363.4 353.3,362.8C354.1,367.1 357.3,365.6 359.6,365C361.7,364.5 364.4,368.1 366,364.2C366,364.2 366.7,364.3 366.7,364.5C367.8,370.5 374.2,366.6 377,370.1Z" style="fill:white;fill-rule:nonzero;"/>
                    </g>
                </g>
            </g>
        </g>
    </g>
</svg>
