<?xml version="1.0" encoding="UTF-8" standalone="no"?>
<!DOCTYPE svg PUBLIC "-//W3C//DTD SVG 1.1//EN" "http://www.w3.org/Graphics/SVG/1.1/DTD/svg11.dtd">
<svg width="100%" height="100%" viewBox="0 0 278 278" version="1.1" xmlns="http://www.w3.org/2000/svg" xmlns:xlink="http://www.w3.org/1999/xlink" xml:space="preserve" xmlns:serif="http://www.serif.com/" style="fill-rule:evenodd;clip-rule:evenodd;stroke-linejoin:round;stroke-miterlimit:1.41421;">
    <g transform="matrix(1,0,0,1,-1749,-705)">
        <g transform="matrix(1,0,0,1,-1342,594)">
            <g transform="matrix(0.996416,0,0,0.996416,2459.27,-0.598566)">
                <circle cx="773.5" cy="251.5" r="139.5" fill="rgb(123,31,162)" class="fill"/>
                <clipPath id="_clip1">
                    <circle cx="773.5" cy="251.5" r="139.5"/>
                </clipPath>
                <g clip-path="url(#_clip1)">
                    <g transform="matrix(0.732088,0,0,0.732088,604.524,71.551)">
                        <g transform="matrix(1.01205,0,0,1.01205,-1694.53,-19.25)">
                            <path d="M1922.56,97.002C1952.55,97.287 1981.54,114.919 1995.49,141.347C2007.44,163.996 2008.09,192.325 1997.07,215.545C1981.53,248.268 1943.26,268.641 1906.31,261.553C1872.43,255.054 1844.31,225.349 1839.74,191.106C1836.23,164.912 1846.09,137.3 1865.48,119.252C1880.54,105.234 1900.88,97.198 1921.48,97.002C1921.84,97.001 1922.2,97.001 1922.56,97.002ZM1921.52,103.097C1893.2,103.367 1865.97,120.34 1853.3,145.433C1842.81,166.222 1842.48,191.867 1852.48,212.93C1866.89,243.286 1902.33,262.137 1936.58,255.567C1967.96,249.548 1994.02,222.013 1998.26,190.298C2001.4,166.795 1992.97,142.007 1976.08,125.312C1961.97,111.373 1942.43,103.287 1922.52,103.097C1922.19,103.096 1921.85,103.096 1921.52,103.097Z" style="fill:white;fill-rule:nonzero;"/>
                        </g>
                        <g transform="matrix(2.03867,-0.546259,0.546259,2.03867,66.5559,-7.78171)">
                            <path d="M51.95,63.803C51.979,65.094 48.712,66.272 48.799,62.9C49.199,47.4 48.1,31.9 48.2,16.4C48.2,10.9 47.9,5.4 47.7,-0.1C48.4,-0.1 49,-0.1 49.7,-0.1C50.3,22.8 51.45,41.803 51.95,63.803Z" style="fill:white;fill-rule:nonzero;"/>
                        </g>
                        <g transform="matrix(-2.03867,-0.546259,-0.546259,2.03867,437.318,-6.41084)">
                            <path d="M51.95,63.803C51.979,65.094 48.712,66.272 48.799,62.9C49.199,47.4 48.1,31.9 48.2,16.4C48.2,10.9 47.9,5.4 47.7,-0.1C48.4,-0.1 49,-0.1 49.7,-0.1C50.3,22.8 51.45,41.803 51.95,63.803Z" style="fill:white;fill-rule:nonzero;"/>
                        </g>
                        <g transform="matrix(1.37087,0,0,1.37087,-2357.39,-96.9151)">
                            <path d="M1843.78,181.299C1843.98,180.632 1877.28,177.013 1880.21,178.856C1880.38,178.827 1902.13,178.45 1902.89,179.77L1903.24,179.786C1904.12,179.827 1905,179.885 1905.83,180.219L1905.83,180.223C1906.46,180.279 1907.13,180.024 1907.83,180.525C1907.02,181.543 1905.86,181.475 1904.85,181.645C1903.79,181.814 1902.88,181.712 1901.86,182.527C1900.91,183.272 1899.29,183.611 1897.86,183.039L1897.86,183.036C1896.97,183.07 1896.06,183.205 1895.17,183.138C1897.79,183.338 1892.39,183.913 1891.48,184.97C1890.47,186.132 1881.63,187.349 1881.23,185.716C1881.23,185.714 1881.24,185.712 1881.24,185.709C1880.9,185.612 1880.55,185.553 1880.31,185.784C1877.46,188.465 1873.59,188.295 1870.2,189.415C1868.67,189.89 1866.88,189.619 1865.79,191.179C1865.77,191.182 1865.75,191.184 1865.73,191.186C1865.01,192.134 1863.91,192.3 1862.94,192.367C1861.55,192.469 1862.02,193.08 1862.33,193.758C1862.35,193.804 1862.37,193.853 1862.39,193.903C1862.97,194.548 1863.51,195.22 1864.06,195.862C1864.7,196.778 1865.35,197.694 1865.99,198.611L1867.68,201.889C1867.71,201.916 1867.73,201.943 1867.76,201.97C1867.8,201.985 1867.84,202 1867.88,202.014L1867.91,202.027C1867.95,202.042 1867.99,202.057 1868.03,202.072C1868.95,203.904 1869.42,206.144 1871.86,206.686C1871.69,206.679 1871.52,206.676 1871.34,206.675C1871.52,206.708 1871.69,206.725 1871.86,206.72C1877.33,209.062 1881.84,212.319 1883.33,218.495C1883.7,220.047 1883.81,221.666 1884.04,223.286C1884.04,223.284 1884.04,223.281 1884.05,223.279C1884.76,224.806 1884.49,226.537 1885.06,228.098L1885.04,228.13C1885.05,228.13 1885.05,228.131 1885.06,228.131C1885.64,229.318 1886.12,230.573 1887.1,231.523C1887.09,231.501 1887.08,231.479 1887.07,231.457C1888.86,232.509 1890.66,233.527 1892.43,234.579C1892.34,234.571 1892.26,234.563 1892.17,234.554C1892.27,234.585 1892.37,234.616 1892.46,234.646C1892.68,234.774 1892.91,234.871 1893.13,234.995C1893.13,234.981 1893.13,234.966 1893.14,234.952C1894.84,235.257 1896.4,235.936 1897.99,236.547C1897.94,236.558 1897.89,236.568 1897.84,236.577C1897.85,236.58 1897.86,236.583 1897.88,236.586C1897.89,236.584 1897.91,236.582 1897.92,236.581L1897.95,236.585L1897.96,236.581C1897.96,236.581 1897.98,236.556 1897.99,236.59C1900.31,236.925 1902.63,237.198 1904.91,237.904C1906.81,238.481 1908.88,238.141 1910.85,237.802C1911.29,237.734 1911.7,237.565 1912.17,237.632L1912.27,237.594C1914.27,236.793 1916.25,235.991 1918.25,235.189L1918.25,235.181C1918.25,233.691 1917.16,232.37 1917.57,230.812C1917.57,230.79 1917.57,230.769 1917.58,230.747C1917.23,229.96 1917.22,229.267 1917.91,228.607C1918.62,227.928 1918.45,226.842 1919,226.062C1919,226.035 1919.01,226.009 1919.01,225.983C1918.98,226.009 1918.96,226.035 1918.93,226.062C1918.38,224.636 1918.76,224.128 1921.07,223.076C1921.06,223.107 1921.06,223.138 1921.05,223.169C1921.08,223.138 1921.11,223.107 1921.13,223.076C1922.86,221.956 1924.66,220.836 1926.46,219.716C1926.66,219.682 1926.87,219.615 1927.07,219.581C1927.08,219.577 1927.09,219.574 1927.1,219.57C1927.08,219.574 1927.06,219.577 1927.04,219.581C1927.78,219.004 1928.63,218.936 1929.48,218.936C1930.26,218.936 1931.04,218.936 1931.79,218.902C1931.81,218.894 1931.82,218.886 1931.84,218.879C1932.07,218.549 1932.3,218.249 1932.53,217.918C1933.55,218.29 1934.7,218.224 1935.55,218.965L1935.55,218.97C1935.69,219.008 1935.83,219.046 1935.96,219.084L1936.23,219.161C1936.37,219.199 1936.5,219.237 1936.64,219.275C1936.64,219.479 1936.64,219.682 1936.61,219.886C1936.6,219.892 1936.58,219.898 1936.57,219.903C1936.6,219.909 1936.62,219.914 1936.64,219.92C1937.5,220 1937.95,220.585 1938.39,221.178C1938.79,221.204 1939.21,221.216 1939.59,221.141C1940.88,221.752 1942.41,221.922 1943.22,223.279C1943.25,223.499 1943.28,223.756 1943.27,223.991C1943.86,224.362 1944.26,224.833 1943.74,225.75C1943.84,226.557 1943.94,227.36 1944.57,227.768L1945.39,228.03C1948.18,224.806 1953.4,221.243 1955.61,217.613C1956.15,216.73 1956.52,215.848 1956.86,214.898C1956.9,213.778 1956.97,212.658 1956.73,211.539C1956.85,211.359 1956.97,211.175 1957.08,210.991C1957,210.597 1956.97,210.183 1956.76,209.842C1956.76,209.838 1956.77,209.834 1956.77,209.831L1956.73,209.842C1956.24,209.536 1956.05,209.147 1956.17,208.625C1956.13,208.59 1956.09,208.554 1956.05,208.519C1956.02,208.349 1956.05,208.213 1956.18,208.112C1957.04,206.743 1959.08,205.65 1959.8,204.195C1959.74,203.959 1959.64,203.715 1959.53,203.463C1959.42,203.259 1959.58,203.019 1959.53,202.818C1959.33,201.999 1963.18,199.575 1964.35,200.986C1964.82,201.732 1964.65,202.75 1965.4,203.361C1966.9,205.103 1966.53,208.135 1965.39,209.681C1965.45,209.684 1965.52,209.692 1965.58,209.706C1966.09,209.978 1966.09,210.453 1966.13,210.928C1966.31,212.217 1965.38,213.255 1965.28,214.496C1965.31,214.546 1965.35,214.6 1965.38,214.66C1965.52,214.966 1965.41,215.339 1965.65,215.611C1966.5,218.325 1964.16,221.141 1964.67,223.958C1965.04,226.062 1965.21,228.199 1964.09,230.167C1964.08,230.171 1964.07,230.175 1964.05,230.179C1963.95,230.413 1963.85,230.646 1963.75,230.846L1963.75,230.851C1963.76,230.849 1963.77,230.848 1963.79,230.846C1963.74,231.005 1963.68,231.164 1963.63,231.323L1963.61,231.387C1963.55,231.546 1963.49,231.705 1963.45,231.864C1963.43,231.869 1963.42,231.873 1963.41,231.877C1963.43,231.884 1963.46,231.891 1963.48,231.898C1963.45,232.95 1962.8,233.628 1962.02,234.239C1961.96,234.315 1961.9,234.37 1961.84,234.408C1961,235.406 1959.65,235.233 1958.56,235.726C1958.49,235.776 1958.41,235.823 1958.32,235.868C1957.95,236.004 1957.64,236.173 1957.34,236.308C1957.33,236.32 1957.32,236.331 1957.31,236.343C1955.34,237.429 1953.13,237.87 1951.03,238.583C1950.18,238.853 1949.2,238.922 1948.49,239.664L1948.48,239.668C1948.86,240.686 1948.92,241.535 1947.57,241.84C1947.26,241.908 1946.68,242.145 1946.89,242.417C1947.77,243.638 1946.65,244.724 1946.75,245.878C1946.82,246.624 1946.51,247.032 1945.8,247.167C1945.7,247.278 1945.6,247.377 1945.5,247.466C1944.94,248.479 1945.19,249.989 1943.76,250.516C1943.76,250.519 1943.76,250.523 1943.77,250.527C1942.95,251.171 1942.17,250.798 1941.39,250.493C1940.61,250.159 1939.85,249.81 1939.08,249.46L1938.78,249.32C1938.01,248.97 1937.25,248.621 1936.47,248.287C1935.93,248.05 1935.15,247.473 1934.77,248.016C1934.4,248.559 1934.43,249.475 1934.88,250.119C1935.15,250.527 1935.55,250.9 1934.94,251.205C1933.86,251.748 1932.67,252.63 1931.58,252.563C1930.01,252.495 1929.22,253.127 1928.48,254.227C1928.49,254.238 1928.49,254.248 1928.5,254.259C1930.74,256.533 1933.21,258.602 1935.25,261.113L1935.25,261.13C1936.23,262.496 1937.54,263.532 1939.02,264.337C1943.19,266.576 1947.16,269.257 1951.54,271.157C1951.55,271.172 1951.56,271.186 1951.57,271.199C1955.84,272.181 1960.1,273.232 1964.09,275.093C1966.23,276.111 1968.33,277.231 1970.54,278.079C1973.52,279.199 1976.65,280.081 1979.67,281.065C1980.55,281.37 1981.53,281.506 1982.07,282.417L1982.08,282.423C1982.19,282.518 1982.29,282.621 1982.39,282.724L1982.43,282.766C1982.53,282.864 1982.63,282.961 1982.74,283.053C1982.74,283.046 1982.75,283.04 1982.75,283.034C1985.03,284.56 1987.4,285.816 1989.51,287.513C1989.5,287.52 1989.49,287.528 1989.48,287.536C1989.49,287.539 1989.5,287.543 1989.51,287.546C1991.68,289.107 1993.82,290.736 1996.06,292.229C1997.01,292.874 1998.19,293.179 1999.28,293.62C1999.82,293.824 2000.5,294.197 2000.3,294.74C2000.03,295.419 1999.45,294.706 1999.04,294.57C1997.72,294.197 1996.39,293.756 1995.07,293.349C1994.5,293.146 1994.06,293.145 1994.02,293.88C1995.15,295.681 1997.21,296.868 1997.55,299.219C1997.58,299.423 1997.62,299.626 1997.68,299.966C1996.53,299.83 1996.56,298.337 1995.51,298.269C1995.44,298.371 1995.41,298.405 1995.41,298.439C1995.24,299.151 1996.63,299.864 1995.78,300.305C1994.93,300.746 1994.7,299.423 1994.19,298.914C1993.81,298.503 1993.52,297.976 1993.21,297.494C1993.18,297.48 1993.16,297.467 1993.14,297.455C1992.63,296.878 1992.09,296.301 1991.58,295.69C1991.42,295.632 1991.26,295.575 1991.13,295.509L1990.78,295.281C1991.08,295.643 1991.29,296.116 1990.8,296.674C1990.66,296.844 1990.49,297.014 1990.39,297.183C1990.05,297.692 1990.8,298.744 1990.12,298.778C1989.2,298.846 1989.54,297.658 1989.27,297.047C1988.39,295.215 1987.71,293.281 1986.15,291.856C1985.98,290.736 1985.37,290.159 1984.25,289.888C1982.67,289.486 1981.46,288.454 1980.38,287.219C1980.37,287.215 1980.36,287.211 1980.34,287.207C1979.6,286.053 1978.38,286.053 1977.22,285.918C1975.12,285.714 1972.95,286.02 1970.84,285.544C1970.8,285.532 1970.75,285.519 1970.71,285.507C1963.76,285.336 1956.86,284.98 1950.48,281.744L1950.48,281.743C1948.34,281.694 1947.16,280.126 1945.83,278.757C1936.74,275.194 1928.19,270.715 1920.39,264.812C1920.35,264.78 1920.31,264.748 1920.26,264.716C1920.27,264.725 1920.28,264.735 1920.29,264.744C1919.47,264.371 1916.83,262.805 1913.8,263.658C1910.87,264.486 1905.86,267.628 1902.34,267.119C1902.24,267.011 1902.12,266.974 1901.98,266.966C1902.09,267.019 1902.19,267.07 1902.3,267.119C1900.92,267.22 1897.35,266.271 1896.91,266.135L1896.9,266.136C1895.82,266.201 1889.1,261.046 1888.69,260.095C1888.69,260.09 1888.69,260.084 1888.68,260.078C1884.7,258.581 1881.59,255.843 1878.55,253.004C1877.29,252.461 1866.35,244.026 1865.07,242.102C1865.03,242.072 1864.98,242.041 1864.94,242.01C1864.84,241.965 1864.74,241.921 1864.64,241.876L1864.56,241.838C1864.46,241.793 1864.37,241.749 1864.26,241.704C1864.26,241.703 1864.26,241.702 1864.26,241.701C1863.88,241.658 1862.77,240.958 1862.67,241.094C1862.66,241.098 1862.65,241.102 1862.64,241.106C1862.75,242.186 1860.63,244.113 1860.63,244.113C1860.62,244.123 1860.61,244.133 1860.6,244.143C1860.63,244.133 1860.66,244.123 1860.7,244.113C1858.7,246.523 1857.85,249.746 1855.03,251.646C1852.9,253.072 1851.64,255.515 1849.94,257.449C1849.57,257.856 1849.16,258.263 1848.79,258.636C1848.76,258.597 1848.73,258.558 1848.71,258.519L1848.7,258.523C1848.71,258.572 1848.72,258.621 1848.72,258.67C1847.07,261.001 1845.14,263.084 1843.26,265.185C1843.19,265.308 1843.12,265.433 1843.06,265.559C1842.61,265.898 1842.14,266.237 1841.7,266.543C1841.34,266.774 1840.98,267.005 1840.59,267.192C1838.04,269.095 1835.95,271.638 1832.61,272.253C1832.57,272.283 1832.54,272.314 1832.5,272.345C1829.65,274.245 1827.35,276.722 1825.17,279.335C1822.87,282.117 1820.29,284.628 1817.47,286.902C1817.35,287.002 1817.23,287.103 1817.11,287.204C1815.36,289.181 1813.34,290.877 1811.36,292.602C1810.94,293.486 1810.23,294.086 1809.45,294.584C1809.44,294.602 1809.43,294.62 1809.43,294.638C1809.37,294.692 1809.3,294.744 1809.24,294.797C1808.24,296.051 1807.1,297.129 1805.77,298.057C1805.76,298.082 1805.74,298.108 1805.73,298.133C1804.41,299.592 1802.88,300.882 1801.35,302.137C1801.34,302.143 1801.32,302.15 1801.31,302.156C1800.82,302.874 1800.36,303.623 1799.9,304.342C1799.9,304.365 1799.9,304.388 1799.89,304.411C1797.79,306.684 1795.48,308.822 1793.62,311.333C1791.92,313.64 1789.55,315.269 1788.02,317.678C1786.53,318.56 1785.54,317.712 1784.62,316.66C1784.62,315.88 1784.62,315.065 1784.62,314.285C1784.79,314.115 1784.96,313.946 1785.2,313.844C1785.29,313.839 1785.38,313.83 1785.46,313.818C1786.08,312.391 1786.25,310.763 1787.41,309.602C1788.76,309.195 1789.31,307.872 1790.29,307.057L1790.3,307.045C1791.55,304.979 1791.78,302.846 1790.66,300.644C1790.39,300.101 1790.29,299.457 1790.19,298.846C1789.44,294.876 1790.46,293.586 1794.47,293.688C1796.81,293.756 1798.47,292.568 1799.89,291.008C1801.56,289.243 1803.05,287.343 1804.61,285.477C1804.62,285.476 1804.62,285.475 1804.63,285.474C1804.62,285.464 1804.62,285.453 1804.61,285.443C1807.29,281.744 1809.39,277.706 1812.35,274.211L1812.36,274.197C1813.78,271.795 1815.95,270.102 1818.12,268.443C1818.13,268.437 1818.14,268.432 1818.16,268.427C1818.14,268.421 1818.13,268.415 1818.12,268.409C1820.73,266.067 1823.85,264.507 1826.97,263.014C1826.97,263.046 1826.97,263.078 1826.97,263.109C1826.98,263.089 1826.99,263.068 1827.01,263.048C1827.45,262.606 1827.85,262.131 1828.3,261.69C1828.34,261.625 1828.39,261.56 1828.44,261.496C1828.38,261.548 1828.32,261.601 1828.26,261.656C1828.74,260.571 1829.25,259.553 1830.06,258.636C1830.07,258.666 1830.08,258.694 1830.09,258.723C1830.09,258.705 1830.09,258.688 1830.09,258.67C1830.97,257.145 1831.6,255.497 1832.63,254.08C1832.67,253.97 1832.7,253.861 1832.74,253.75C1833.72,251.477 1837.9,238.833 1841.19,232.582C1844.19,226.897 1847.51,221.745 1848.59,221.892C1848.61,221.843 1848.63,221.792 1848.64,221.739C1848.62,221.743 1846.31,216.12 1845.77,214.728C1844.21,210.724 1842.38,196.201 1842.41,194.166L1842.41,194.134C1842.51,191.463 1842.09,188.728 1843.05,186.121C1843.04,186.099 1843.03,186.077 1843.02,186.056C1843.09,184.461 1843.23,182.866 1843.7,181.305C1843.73,181.304 1843.75,181.301 1843.78,181.299ZM1947.44,230.036C1949.69,227.453 1951.76,224.749 1953.68,221.949C1955.45,219.379 1957.1,215.999 1958.68,213.288C1958.95,213.288 1959.22,213.288 1959.49,213.288C1960.07,213.689 1959.68,212.931 1959.99,213.868C1960.3,214.805 1960.87,215.073 1960.24,215.43C1959.84,215.653 1959.53,216.054 1959.66,216.456C1960.15,218.419 1958.86,219.892 1958.33,221.587C1958.06,221.9 1957.75,222.212 1957.52,222.569C1956.27,223.863 1955.69,225.603 1954.62,227.031C1954,228.013 1953.02,228.637 1951.99,229.083C1951.14,229.351 1950.52,229.976 1949.71,230.244C1948.69,230.645 1947.66,231.553 1947.44,230.036ZM1852.38,209.681C1852.28,209.329 1852.13,209.012 1852.06,208.695C1851.6,207.733 1851.76,206.415 1850.8,205.706L1850.8,205.702C1850.76,205.526 1850.73,205.385 1850.62,205.244C1850.09,204.716 1850.66,203.906 1850.16,203.378C1849.74,202.955 1849.53,202.391 1849.14,201.969C1848.26,199.997 1847.77,197.849 1846.39,195.524C1846.39,196.933 1846.39,197.849 1846.39,198.764C1846.43,199.187 1846.47,199.609 1846.5,200.032C1847.09,202.827 1847.79,205.588 1848.77,208.279L1848.79,208.343C1849.28,209.787 1849.78,211.231 1850.27,212.675L1850.27,212.671C1850.35,214.274 1851.33,215.43 1852.06,216.724C1853.83,215.879 1854.53,214.647 1853.54,212.815C1852.84,211.9 1852.63,210.773 1852.35,209.681L1852.38,209.681Z" style="fill:white;"/>
                        </g>
                    </g>
                </g>
            </g>
        </g>
    </g>
</svg>
