<?xml version="1.0" encoding="UTF-8" standalone="no"?>
<!DOCTYPE svg PUBLIC "-//W3C//DTD SVG 1.1//EN" "http://www.w3.org/Graphics/SVG/1.1/DTD/svg11.dtd">
<svg width="100%" height="100%" viewBox="0 0 278 278" version="1.1" xmlns="http://www.w3.org/2000/svg" xmlns:xlink="http://www.w3.org/1999/xlink" xml:space="preserve" xmlns:serif="http://www.serif.com/" style="fill-rule:evenodd;clip-rule:evenodd;stroke-linejoin:round;stroke-miterlimit:1.41421;">
    <g transform="matrix(1,0,0,1,-2841,-705)">
        <g transform="matrix(1,0,0,1,-250,594)">
            <g transform="matrix(0.996416,0,0,0.996416,2459.27,-0.598566)">
                <circle cx="773.5" cy="251.5" r="139.5" fill="rgb(76,175,80)" class="fill"/>
                <clipPath id="_clip1">
                    <circle cx="773.5" cy="251.5" r="139.5"/>
                </clipPath>
                <g clip-path="url(#_clip1)">
                    <g transform="matrix(0.77277,0,0,0.77277,743.552,120.531)">
                        <path d="M2.9,376.623C2.9,365.023 3.1,276.7 3,265.1C3,243.8 2.9,222.5 2.7,201.2C2.7,197.4 1.1,193.6 1.2,189.8C1.6,176.8 2.9,163.9 3,150.9C3.2,114.8 3,78.7 2.9,42.6C2.9,37.1 3.4,31.6 3.1,26.1C2.9,22.8 1.8,19.5 0.6,16.5C-0.7,13.1 0.2,4.6 2.5,1.8C2.9,1.4 2.8,-48.751 2.9,-49.351C4.6,-49.351 6.2,-49.351 7.9,-49.351C8.7,-47.351 9.7,4 10.4,6.1C11,8 12,10 11.8,11.8C10.9,17.9 13.2,23 16.1,27.9C18.9,32.6 22.4,36.9 24.9,41.8C28.5,48.7 32.1,55.6 34.8,62.9C38.3,72.5 46.6,78.4 51.7,86.7C53.3,89.3 55.9,89.4 57.9,86.1C60.1,82.4 62.3,79.1 59.8,74.6C59.4,73.9 60.4,71.9 61.3,71.2C63.8,69.1 66.6,67.3 69.3,65.4C69.8,65.1 70.6,64.9 71.1,65.1C76.9,66.3 82.7,67.4 88.4,68.9C93.8,70.4 98.5,80.2 97.3,87.4C96,94.8 93.8,102 92.8,109.4C91.2,120.9 90.3,132.5 88.8,144C88.5,146.6 87,149.1 86.2,151.7C85.6,153.5 85.4,155.4 84.9,157.2C84.5,158.6 84,159.9 83.6,161.3C82.2,160.7 80.9,160.2 79.3,159.5C78.5,160.2 77.1,161.2 75.7,162.4C78.4,167.3 78.4,172.3 77,177.7C76.4,180.1 76.7,183.1 77.6,185.4C82.9,198.1 90,209.6 100.6,218.7C109.7,226.6 116.6,236 120.3,247.6C121.4,251.1 122.5,254.8 124.6,257.6C126.6,260.3 129.6,262.9 132.7,264.2C136.1,265.6 137.8,267.4 137.2,270.8C135.9,278.9 140,285.7 142.2,293C142.6,294.5 142.3,296.2 142.3,298.5C129.4,292.3 126.3,280.2 120,270.5C112.1,258.4 104.1,246.4 95.9,234.5C94.3,232.2 91.1,231.1 88.9,229.1C85.2,225.8 81.5,222.5 78.2,218.9C74,214.4 70.3,209.4 66.1,205C55.2,193.5 41.7,173.9 36.7,162.3C30.3,167.6 23.5,172.7 17.4,178.5C15.1,180.7 13.8,184.4 13,187.7C4.9,224.4 10.7,261.6 9.8,298.5C9.8,299 10,376.123 10.1,376.623C7.5,376.623 5.2,376.623 2.9,376.623ZM8.6,178C10.3,176.8 11,176.5 11.4,176C18,167.9 24.6,159.8 31,151.5C32.7,149.2 34.4,146.3 34.6,143.6C35,137.3 33.6,130.9 34.3,124.7C35.1,117.9 33.2,110.9 37.8,104.1C41.4,98.8 41,92.5 35.6,86.9C32,83.2 29.7,78.1 27.4,73.4C24,66.4 21.3,59.1 18,52C13,41.4 7.1,31 9,18.5C9.2,16.9 8.8,15.2 8.7,13.6C8.7,13.6 8.6,13.6 8.6,13.7C8.6,68 8.6,122.4 8.6,178ZM70.4,124.7C61.7,132.9 61.1,143.1 59.5,153.5C62.5,154.8 66.3,156.4 70.1,158.1C66,155.5 67.3,151.7 67.6,148.5C68.4,140.8 69.4,133 70.4,124.7Z" style="fill:white;fill-rule:nonzero;"/>
                    </g>
                </g>
            </g>
        </g>
    </g>
</svg>
