<?xml version="1.0" encoding="UTF-8" standalone="no"?>
<!DOCTYPE svg PUBLIC "-//W3C//DTD SVG 1.1//EN" "http://www.w3.org/Graphics/SVG/1.1/DTD/svg11.dtd">
<svg width="100%" height="100%" viewBox="0 0 278 278" version="1.1" xmlns="http://www.w3.org/2000/svg" xmlns:xlink="http://www.w3.org/1999/xlink" xml:space="preserve" xmlns:serif="http://www.serif.com/" style="fill-rule:evenodd;clip-rule:evenodd;stroke-linejoin:round;stroke-miterlimit:1.41421;">
    <g transform="matrix(1,0,0,1,-3641,-710.391)">
        <g transform="matrix(1,0,0,1,550,599.391)">
            <g transform="matrix(1.34497,0,0,1.34497,1897.65,-1100.79)">
                <path d="M980.067,901.513L980.44,913.44C980.571,922.327 982.82,931.056 987,938.9C1002.35,967.74 1020.13,994.96 1039.45,1021.26C1041.57,1024.15 1044.3,1024.6 1047.19,1025.79C1052.44,1027.95 1057.26,1031.16 1063.73,1034.74C1059.64,1035.31 1056.89,1035.88 1054.11,1036.04C1051.33,1036.2 1050.11,1037.48 1049.9,1040.35L1045.73,1091.72C1042.06,1094.05 1038.22,1096.16 1034.23,1098.01C1035.58,1080.8 1036.77,1063.54 1038.43,1046.32C1039.09,1039.47 1038.98,1038.22 1032.26,1038.84C1025.54,1039.46 1018.64,1041.28 1011.82,1042.52C1005,1043.76 998.22,1044.92 991.1,1046.17C989.9,1054.28 982.3,1057.17 975.76,1060.17C967.19,1064.08 957.99,1066.71 948.92,1069.38C946.468,1069.84 943.931,1069.27 941.92,1067.79C939.24,1065.7 939.61,1062.48 941.51,1059.67C945.88,1053.19 950.09,1046.58 954.73,1040.29C957.73,1036.29 958.35,1033.29 954.42,1029.15C950.82,1025.37 948.18,1020.54 945.75,1015.85C944.54,1013.5 944.34,1010.41 944.42,1007.67C944.608,1002.56 945.059,997.457 945.77,992.39C946.097,990.994 946.878,989.745 947.99,988.84C949.34,987.66 951.16,987.02 952.63,985.94C958.37,981.75 962.11,977.14 962.63,968.99C963.14,960.45 967,952.11 969.29,943.66C970.463,939.623 971.408,935.523 972.12,931.38C973.54,922.09 974.66,912.76 975.89,903.45L975.982,902.033L980.057,901.514L980.067,901.513Z" style="fill:white;"/>
            </g>
        </g>
        <g transform="matrix(1,0,0,1,550,599.391)">
            <path d="M3210.32,112.416L3210.19,114.322C3208.54,126.844 3207.03,139.392 3205.12,151.887C3204.16,157.459 3202.89,162.973 3201.32,168.403C3198.24,179.768 3193.04,190.985 3192.36,202.471C3191.66,213.433 3186.63,219.633 3178.91,225.268C3176.93,226.721 3174.48,227.582 3172.67,229.169C3171.17,230.386 3170.12,232.066 3169.68,233.943C3168.72,240.758 3168.12,247.617 3167.87,254.494C3167.76,258.18 3168.03,262.336 3169.65,265.496C3172.92,271.804 3176.47,278.3 3181.32,283.384C3186.6,288.952 3185.77,292.987 3181.73,298.367C3175.49,306.827 3169.83,315.717 3163.95,324.433C3161.4,328.212 3160.9,332.543 3164.5,335.354C3167.21,337.34 3170.62,338.116 3173.92,337.492C3186.12,333.901 3198.49,330.364 3210.02,325.105C3218.81,321.07 3229.03,317.183 3230.65,306.276C3240.22,304.594 3249.34,303.034 3258.52,301.366C3267.69,299.699 3276.97,297.251 3286.01,296.417C3295.05,295.583 3295.19,297.264 3294.31,306.477C3292.07,329.631 3290.47,352.846 3288.66,376.001C3270.85,384.35 3250.96,389 3230,389C3153.28,389 3091,326.716 3091,250C3091,179.964 3142.91,121.956 3210.32,112.416ZM3215.81,111.717C3220.46,111.244 3225.2,111 3230,111C3306.72,111 3369,173.284 3369,250C3369,299.46 3343.11,342.922 3304.13,367.534L3309.73,298.448C3310.01,294.588 3311.66,292.866 3315.39,292.651C3319.13,292.436 3322.83,291.669 3328.33,290.903C3319.63,286.088 3313.15,281.77 3306.09,278.865C3302.2,277.265 3298.53,276.659 3295.68,272.772C3269.69,237.4 3245.78,200.79 3225.13,162.001C3219.51,151.451 3216.49,139.711 3216.31,127.758L3215.81,111.717ZM3224.96,304.702C3207.47,299.793 3203.26,301.42 3191.08,318.259C3199.01,317.331 3206.91,321.258 3211.59,312.032C3212.05,311.117 3214.08,310.028 3214.76,310.351C3221.1,313.269 3221.84,307.54 3224.96,304.702ZM3218.72,206.25C3220.76,211.039 3225.44,216.822 3224.91,222.134C3224.38,227.878 3219.07,233.19 3215.24,239.727C3222.35,246.64 3215.24,256.135 3216.12,265.2L3214.59,266.465L3204.11,254.01L3208.35,237.75C3204.31,238.153 3198.17,233.782 3195.88,241.65C3194.6,246.836 3193.64,252.096 3193,257.399C3192.02,261.543 3194.47,265.791 3198.56,267.003C3211.71,271.804 3221.53,282.725 3235.75,286.061C3243.24,287.823 3249.8,288.966 3257.12,286.424C3260.93,285.327 3264.86,284.704 3268.82,284.568C3272.26,284.272 3275.74,284.568 3280.39,284.568C3259.11,244.219 3243.57,202.108 3212.91,168.094L3202.73,203.682L3218.72,206.25Z" style="fill:url(#_Linear1);"/>
        </g>
    </g>
    <defs>
        <linearGradient id="_Linear1" x1="0" y1="0" x2="1" y2="0" gradientUnits="userSpaceOnUse" gradientTransform="matrix(278,0,0,278,3091,250)"><stop offset="0" style="stop-color:rgb(62,91,208);stop-opacity:1"/><stop offset="1" style="stop-color:rgb(44,195,246);stop-opacity:1"/></linearGradient>
    </defs>
</svg>
