<?xml version="1.0" encoding="UTF-8" standalone="no"?>
<!DOCTYPE svg PUBLIC "-//W3C//DTD SVG 1.1//EN" "http://www.w3.org/Graphics/SVG/1.1/DTD/svg11.dtd">
<svg width="100%" height="100%" viewBox="0 0 278 278" version="1.1" xmlns="http://www.w3.org/2000/svg" xmlns:xlink="http://www.w3.org/1999/xlink" xml:space="preserve" xmlns:serif="http://www.serif.com/" style="fill-rule:evenodd;clip-rule:evenodd;stroke-linejoin:round;stroke-miterlimit:1.41421;">
    <g transform="matrix(1,0,0,1,-657,-705)">
        <g transform="matrix(1,0,0,1,-2434,594)">
            <g transform="matrix(0.996416,0,0,0.996416,2459.27,-0.598566)">
                <circle cx="773.5" cy="251.5" r="139.5" fill="rgb(37,200,218)" class="fill"/>
                <clipPath id="_clip1">
                    <circle cx="773.5" cy="251.5" r="139.5"/>
                </clipPath>
                <g clip-path="url(#_clip1)">
                    <g transform="matrix(1.54513,0,0,1.54513,659.107,112.462)">
                        <path d="M103.8,0C104.9,14.1 105.9,28.2 107,42.1C107.5,42.4 107.8,42.7 108,42.7C117.3,43 120,47.1 114.8,54.8C110.8,60.8 108.2,67 108.1,74.1C108.1,75.8 108.8,78.3 110.1,79.2C114.8,82.4 116.4,87.8 119.8,91.5C126.2,98.4 124.1,106.1 124.7,113.7C124.9,116.3 126.4,119 128.1,121.1C130.5,124.2 130.2,130.8 127.1,133.2C125.9,134.2 124.3,135.5 124.1,136.9C123.5,140.6 121.1,140.9 118.2,140.7C111.8,140.3 105.8,136.9 105.4,132.2C105.1,128.6 106.6,124.8 107.4,120.8C104.5,121.3 101.6,122.7 100.9,127C100.6,128.6 99.9,131 98.8,131.5C96.9,132.3 94.2,132.4 92.2,131.7C91.4,131.4 91.6,128.4 91.3,126.5C90,125.3 88.4,123.8 87.2,122.7C93.5,118.5 99.2,114.7 105.2,110.7C100.3,107.6 102.9,99 96.5,95.1C95.8,94.7 96.1,92.7 96.1,92.9C87.8,89.4 80.3,86 72.6,83.2C69.8,82.2 66.5,82 63.5,82.1C57.9,82.3 52.3,83 46.6,83.6C44.6,83.8 42.6,84 40.8,84.8C37.3,86.4 35,85.9 33,82.3C31.2,79 22.4,77 18.5,79C15.4,80.6 13.3,80 10.8,78C8.8,76.3 6.3,75.2 4.2,73.5C2.6,72.1 1.3,70.3 -0.1,68.6C0.2,68.1 0.4,67.7 0.7,67.2C2.4,67.3 4.1,67.3 5.7,67.7C10.4,68.9 14.9,70.6 19.6,71.7C24,72.8 28.4,74.5 33,71.3C34.5,70.3 37.2,71.2 39.4,71C46.6,70.6 47.4,70 47.5,62.9C47.9,47.4 48.1,31.9 48.2,16.4C48.2,10.9 47.9,5.4 47.7,-0.1C48.4,-0.1 49,-0.1 49.7,-0.1C50.3,22.8 50.8,45.7 51.3,67.7C62.7,68.5 73.4,69.4 84.1,69.8C86,69.9 88.5,68.3 89.8,66.7C92.9,62.8 95.4,58.5 98.4,54C92.7,51 87.3,47.2 80.5,51.2C79.9,51.6 78.4,51.5 77.9,51C74.8,48.3 71.7,45.6 68.9,42.5C67.9,41.4 67.8,39.5 67,36.7C74.3,39.2 80.1,42.1 86.2,43C92,43.8 98.1,42.6 104.6,42.2C103.6,28 102.7,13.9 101.7,-0.1C102.5,0 103.1,0 103.8,0Z" style="fill:white;fill-rule:nonzero;"/>
                    </g>
                </g>
            </g>
        </g>
    </g>
</svg>
